<svg width="1440" height="358" viewBox="0 0 1440 358" fill="none" xmlns="http://www.w3.org/2000/svg">
<g clip-path="url(#clip0_3793_11129)">
<rect width="1440" height="358" fill="#04005C"/>
<g opacity="0.4">
<path d="M49.0666 277.358H33.0212C29.546 277.358 27.3952 273.585 29.1632 270.6L52.2927 231.564C53.125 230.156 53.125 228.409 52.2927 227.002L29.1632 187.966C27.3952 184.981 29.552 181.207 33.0212 181.207H49.0666C50.6645 181.207 52.1408 182.057 52.9428 183.434L78.3263 227.032C79.1343 228.421 79.1343 230.144 78.3263 231.534L52.9428 275.132C52.1408 276.509 50.6584 277.358 49.0666 277.358Z" fill="url(#paint0_linear_3793_11129)"/>
<path opacity="0.25" d="M49.0666 277.358H33.0212C29.546 277.358 27.3952 273.585 29.1632 270.6L52.2927 231.564C53.125 230.156 53.125 228.409 52.2927 227.002L29.1632 187.966C27.3952 184.981 29.552 181.207 33.0212 181.207H49.0666C50.6645 181.207 52.1408 182.057 52.9428 183.434L78.3263 227.032C79.1343 228.421 79.1343 230.144 78.3263 231.534L52.9428 275.132C52.1408 276.509 50.6584 277.358 49.0666 277.358Z" fill="black"/>
<path d="M49.0666 181.656C50.4943 181.656 51.831 182.42 52.5479 183.658L77.9314 227.256C78.6544 228.506 78.6544 230.053 77.9314 231.303L52.5479 274.901C51.831 276.133 50.4943 276.903 49.0666 276.903H33.0212C31.557 276.903 30.2447 276.145 29.5217 274.871C28.7987 273.596 28.8047 272.086 29.552 270.83L52.6815 231.794C53.5989 230.247 53.5989 228.318 52.6815 226.771L29.552 187.735C28.8047 186.473 28.7926 184.963 29.5217 183.694C30.2447 182.42 31.557 181.662 33.0212 181.662H49.0666M49.0666 181.201H33.0212C29.546 181.201 27.3952 184.975 29.1632 187.96L52.2927 226.995C53.125 228.403 53.125 230.15 52.2927 231.558L29.1632 270.593C27.3952 273.578 29.552 277.352 33.0212 277.352H49.0666C50.6645 277.352 52.1408 276.503 52.9428 275.125L78.3263 231.527C79.1343 230.138 79.1343 228.415 78.3263 227.026L52.9428 183.428C52.1408 182.05 50.6584 181.201 49.0666 181.201Z" fill="url(#paint1_linear_3793_11129)"/>
</g>
<g opacity="0.4">
<path d="M167.403 307.032H151.357C147.882 307.032 145.731 303.258 147.499 300.273L170.629 261.238C171.461 259.83 171.461 258.083 170.629 256.675L147.499 217.64C145.731 214.655 147.888 210.881 151.357 210.881H167.403C169 210.881 170.477 211.73 171.279 213.108L196.662 256.706C197.47 258.095 197.47 259.818 196.662 261.208L171.279 304.806C170.477 306.183 169 307.032 167.403 307.032Z" fill="url(#paint2_linear_3793_11129)"/>
<path opacity="0.25" d="M167.403 307.032H151.357C147.882 307.032 145.731 303.258 147.499 300.273L170.629 261.238C171.461 259.83 171.461 258.083 170.629 256.675L147.499 217.64C145.731 214.655 147.888 210.881 151.357 210.881H167.403C169 210.881 170.477 211.73 171.279 213.108L196.662 256.706C197.47 258.095 197.47 259.818 196.662 261.208L171.279 304.806C170.477 306.183 169 307.032 167.403 307.032Z" fill="black"/>
<path d="M167.403 211.33C168.83 211.33 170.167 212.094 170.884 213.332L196.267 256.93C196.99 258.18 196.99 259.727 196.267 260.977L170.884 304.575C170.167 305.806 168.83 306.577 167.403 306.577H151.357C149.893 306.577 148.581 305.818 147.858 304.544C147.135 303.27 147.141 301.76 147.888 300.504L171.017 261.468C171.935 259.921 171.935 257.992 171.017 256.445L147.888 217.409C147.141 216.147 147.129 214.636 147.858 213.368C148.581 212.094 149.893 211.336 151.357 211.336H167.403M167.403 210.875H151.357C147.882 210.875 145.731 214.648 147.499 217.633L170.629 256.669C171.461 258.077 171.461 259.824 170.629 261.232L147.499 300.267C145.731 303.252 147.888 307.026 151.357 307.026H167.403C169 307.026 170.477 306.176 171.279 304.799L196.662 261.201C197.47 259.812 197.47 258.089 196.662 256.699L171.279 213.101C170.477 211.724 169 210.875 167.403 210.875Z" fill="url(#paint3_linear_3793_11129)"/>
</g>
<g opacity="0.4">
<path d="M107.657 203.109H99.8802C98.1972 203.109 97.1523 201.283 98.0089 199.833L109.218 180.916C109.619 180.236 109.619 179.387 109.218 178.708L98.0089 159.79C97.1523 158.346 98.1972 156.514 99.8802 156.514H107.657C108.428 156.514 109.145 156.927 109.534 157.594L121.837 178.72C122.232 179.393 122.232 180.224 121.837 180.904L109.534 202.029C109.145 202.703 108.428 203.109 107.657 203.109Z" fill="url(#paint4_linear_3793_11129)"/>
<path opacity="0.25" d="M107.657 203.109H99.8802C98.1972 203.109 97.1523 201.283 98.0089 199.833L109.218 180.916C109.619 180.236 109.619 179.387 109.218 178.708L98.0089 159.79C97.1523 158.346 98.1972 156.514 99.8802 156.514H107.657C108.428 156.514 109.145 156.927 109.534 157.594L121.837 178.72C122.232 179.393 122.232 180.224 121.837 180.904L109.534 202.029C109.145 202.703 108.428 203.109 107.657 203.109Z" fill="black"/>
<path d="M107.657 156.969C108.264 156.969 108.835 157.297 109.139 157.825L121.442 178.95C121.752 179.484 121.752 180.145 121.442 180.673L109.139 201.799C108.835 202.327 108.264 202.654 107.657 202.654H99.8802C99.2544 202.654 98.6954 202.333 98.3856 201.787C98.0757 201.247 98.0818 200.598 98.3977 200.064L109.607 181.147C110.093 180.321 110.093 179.296 109.607 178.471L98.3977 159.554C98.0818 159.014 98.0757 158.371 98.3856 157.831C98.6954 157.291 99.2544 156.963 99.8802 156.963H107.657M107.657 156.514H99.8802C98.1972 156.514 97.1523 158.34 98.0089 159.79L109.218 178.708C109.619 179.387 109.619 180.236 109.218 180.916L98.0089 199.833C97.1523 201.277 98.1972 203.109 99.8802 203.109H107.657C108.428 203.109 109.145 202.697 109.534 202.029L121.837 180.904C122.232 180.23 122.232 179.399 121.837 178.72L109.534 157.594C109.145 156.927 108.428 156.514 107.657 156.514Z" fill="url(#paint5_linear_3793_11129)"/>
</g>
<g opacity="0.4">
<path d="M123.133 203.109H115.357C113.674 203.109 112.629 201.283 113.485 199.833L124.695 180.916C125.096 180.236 125.096 179.387 124.695 178.708L113.485 159.79C112.629 158.346 113.674 156.514 115.357 156.514H123.133C123.905 156.514 124.622 156.927 125.011 157.594L137.314 178.72C137.709 179.393 137.709 180.224 137.314 180.904L125.011 202.029C124.622 202.703 123.905 203.109 123.133 203.109Z" fill="url(#paint6_linear_3793_11129)"/>
<path opacity="0.25" d="M123.133 203.109H115.357C113.674 203.109 112.629 201.283 113.485 199.833L124.695 180.916C125.096 180.236 125.096 179.387 124.695 178.708L113.485 159.79C112.629 158.346 113.674 156.514 115.357 156.514H123.133C123.905 156.514 124.622 156.927 125.011 157.594L137.314 178.72C137.709 179.393 137.709 180.224 137.314 180.904L125.011 202.029C124.622 202.703 123.905 203.109 123.133 203.109Z" fill="black"/>
<path d="M123.133 156.969C123.741 156.969 124.312 157.297 124.616 157.825L136.919 178.95C137.229 179.484 137.229 180.145 136.919 180.673L124.616 201.799C124.312 202.327 123.741 202.654 123.133 202.654H115.357C114.731 202.654 114.172 202.333 113.862 201.787C113.552 201.247 113.558 200.598 113.874 200.064L125.084 181.147C125.57 180.321 125.57 179.296 125.084 178.471L113.874 159.554C113.558 159.014 113.552 158.371 113.862 157.831C114.172 157.291 114.731 156.963 115.357 156.963H123.133M123.133 156.514H115.357C113.674 156.514 112.629 158.34 113.485 159.79L124.695 178.708C125.096 179.387 125.096 180.236 124.695 180.916L113.485 199.833C112.629 201.277 113.674 203.109 115.357 203.109H123.133C123.905 203.109 124.622 202.697 125.011 202.029L137.314 180.904C137.709 180.23 137.709 179.399 137.314 178.72L125.011 157.594C124.622 156.927 123.905 156.514 123.133 156.514Z" fill="url(#paint7_linear_3793_11129)"/>
</g>
<path d="M69.7717 405.912H20.7303C10.1103 405.912 3.5245 394.379 8.93169 385.254L79.6383 265.927C82.1839 261.626 82.1839 256.287 79.6383 251.985L8.93169 132.658C3.5245 123.533 10.1103 112 20.7303 112H69.7717C74.6564 112 79.1705 114.597 81.625 118.807L159.209 252.076C161.682 256.329 161.682 261.583 159.209 265.836L81.625 399.099C79.1705 403.316 74.6564 405.912 69.7717 405.912Z" fill="url(#paint8_linear_3793_11129)"/>
<path opacity="0.5" d="M69.7717 405.912H20.7303C10.1103 405.912 3.5245 394.379 8.93169 385.254L79.6383 265.927C82.1839 261.626 82.1839 256.287 79.6383 251.985L8.93169 132.658C3.5245 123.533 10.1103 112 20.7303 112H69.7717C74.6564 112 79.1705 114.597 81.625 118.807L159.209 252.076C161.682 256.329 161.682 261.583 159.209 265.836L81.625 399.099C79.1705 403.316 74.6564 405.912 69.7717 405.912Z" fill="white"/>
<path opacity="0.25" d="M69.7717 405.912H20.7303C10.1103 405.912 3.5245 394.379 8.93169 385.254L79.6383 265.927C82.1839 261.626 82.1839 256.287 79.6383 251.985L8.93169 132.658C3.5245 123.533 10.1103 112 20.7303 112H69.7717C74.6564 112 79.1705 114.597 81.625 118.807L159.209 252.076C161.682 256.329 161.682 261.583 159.209 265.836L81.625 399.099C79.1705 403.316 74.6564 405.912 69.7717 405.912Z" fill="black"/>
<path d="M69.7717 112V112.455C74.4741 112.455 78.8667 114.979 81.2301 119.038L158.814 252.307C161.202 256.408 161.202 261.504 158.814 265.612L81.2301 398.875C78.8667 402.933 74.4741 405.457 69.7717 405.457H20.7303C15.9124 405.457 11.6049 402.964 9.21724 398.778C6.82957 394.597 6.86602 389.628 9.32659 385.485L80.0332 266.158C82.6639 261.717 82.6639 256.196 80.0332 251.755L9.32052 132.428C6.86602 128.284 6.82349 123.315 9.21116 119.135C11.5988 114.955 15.9003 112.455 20.7242 112.455H69.7656V112M69.7717 112H20.7303C10.1103 112 3.5245 123.533 8.93169 132.658L79.6383 251.985C82.1839 256.287 82.1839 261.626 79.6383 265.927L8.93169 385.248C3.5245 394.373 10.1103 405.906 20.7303 405.906H69.7717C74.6564 405.906 79.1705 403.316 81.625 399.099L159.209 265.83C161.682 261.577 161.682 256.323 159.209 252.07L81.625 118.801C79.1705 114.591 74.6564 112 69.7717 112Z" fill="url(#paint9_linear_3793_11129)"/>
<g opacity="0.75">
<path d="M108.408 335.893H96.7918C94.2765 335.893 92.7151 333.163 93.9971 330.997L110.747 302.73C111.349 301.711 111.349 300.443 110.747 299.43L93.9971 271.163C92.7151 269.004 94.2765 266.267 96.7918 266.267H108.408C109.563 266.267 110.632 266.88 111.215 267.881L129.594 299.454C130.183 300.461 130.183 301.705 129.594 302.712L111.215 334.285C110.638 335.28 109.569 335.893 108.408 335.893Z" fill="url(#paint10_linear_3793_11129)"/>
<path opacity="0.25" d="M108.408 335.893H96.7918C94.2765 335.893 92.7151 333.163 93.9971 330.997L110.747 302.73C111.349 301.711 111.349 300.443 110.747 299.43L93.9971 271.163C92.7151 269.004 94.2765 266.267 96.7918 266.267H108.408C109.563 266.267 110.632 266.88 111.215 267.881L129.594 299.454C130.183 300.461 130.183 301.705 129.594 302.712L111.215 334.285C110.638 335.28 109.569 335.893 108.408 335.893Z" fill="black"/>
<path d="M108.408 266.716C109.398 266.716 110.322 267.25 110.82 268.105L129.199 299.678C129.703 300.54 129.703 301.614 129.199 302.481L110.82 334.054C110.322 334.91 109.398 335.444 108.408 335.444H96.7918C95.7772 335.444 94.8719 334.916 94.3677 334.036C93.8634 333.156 93.8756 332.107 94.392 331.233L111.142 302.967C111.829 301.808 111.829 300.364 111.142 299.199L94.392 270.932C93.8756 270.059 93.8695 269.015 94.3677 268.129C94.8719 267.25 95.7772 266.722 96.7918 266.722H108.408M108.408 266.261H96.7918C94.2765 266.261 92.7151 268.991 93.9971 271.157L110.747 299.423C111.349 300.443 111.349 301.711 110.747 302.724L93.9971 330.99C92.7151 333.15 94.2765 335.887 96.7918 335.887H108.408C109.563 335.887 110.632 335.274 111.215 334.273L129.594 302.7C130.183 301.692 130.183 300.449 129.594 299.442L111.215 267.869C110.638 266.88 109.569 266.261 108.408 266.261Z" fill="url(#paint11_linear_3793_11129)"/>
</g>
<g opacity="0.75">
<path d="M83.8066 335.893H72.1902C69.675 335.893 68.1136 333.163 69.3955 330.997L86.1457 302.73C86.7472 301.711 86.7472 300.443 86.1457 299.43L69.3955 271.163C68.1136 269.004 69.675 266.267 72.1902 266.267H83.8066C84.961 266.267 86.0303 266.88 86.6135 267.881L104.992 299.454C105.581 300.461 105.581 301.705 104.992 302.712L86.6135 334.285C86.0303 335.28 84.961 335.893 83.8066 335.893Z" fill="url(#paint12_linear_3793_11129)"/>
<path opacity="0.25" d="M83.8066 335.893H72.1902C69.675 335.893 68.1136 333.163 69.3955 330.997L86.1457 302.73C86.7472 301.711 86.7472 300.443 86.1457 299.43L69.3955 271.163C68.1136 269.004 69.675 266.267 72.1902 266.267H83.8066C84.961 266.267 86.0303 266.88 86.6135 267.881L104.992 299.454C105.581 300.461 105.581 301.705 104.992 302.712L86.6135 334.285C86.0303 335.28 84.961 335.893 83.8066 335.893Z" fill="black"/>
<path d="M83.8066 266.716C84.7969 266.716 85.7204 267.25 86.2186 268.105L104.597 299.678C105.101 300.54 105.101 301.614 104.597 302.481L86.2186 334.055C85.7204 334.91 84.7969 335.444 83.8066 335.444H72.1902C71.1756 335.444 70.2704 334.916 69.7661 334.036C69.2618 333.157 69.274 332.107 69.7904 331.233L86.5406 302.967C87.2271 301.808 87.2271 300.364 86.5406 299.199L69.7904 270.933C69.274 270.059 69.2618 269.015 69.7661 268.13C70.2704 267.25 71.1756 266.722 72.1902 266.722H83.8066M83.8066 266.261H72.1902C69.675 266.261 68.1136 268.991 69.3955 271.157L86.1457 299.424C86.7472 300.443 86.7472 301.711 86.1457 302.724L69.3955 330.991C68.1136 333.151 69.675 335.887 72.1902 335.887H83.8066C84.961 335.887 86.0303 335.274 86.6135 334.273L104.992 302.7C105.581 301.693 105.581 300.449 104.992 299.442L86.6135 267.869C86.0303 266.88 84.961 266.261 83.8066 266.261Z" fill="url(#paint13_linear_3793_11129)"/>
</g>
<g opacity="0.4">
<path d="M1427.2 93.554H1443.24C1446.72 93.554 1448.87 97.3277 1447.1 100.313L1423.97 139.348C1423.14 140.756 1423.14 142.503 1423.97 143.911L1447.1 182.946C1448.87 185.931 1446.71 189.705 1443.24 189.705H1427.2C1425.6 189.705 1424.12 188.856 1423.32 187.478L1397.94 143.88C1397.13 142.491 1397.13 140.768 1397.94 139.379L1423.32 95.7806C1424.12 94.4034 1425.61 93.554 1427.2 93.554Z" fill="url(#paint14_linear_3793_11129)"/>
<path opacity="0.25" d="M1427.2 93.554H1443.24C1446.72 93.554 1448.87 97.3277 1447.1 100.313L1423.97 139.348C1423.14 140.756 1423.14 142.503 1423.97 143.911L1447.1 182.946C1448.87 185.931 1446.71 189.705 1443.24 189.705H1427.2C1425.6 189.705 1424.12 188.856 1423.32 187.478L1397.94 143.88C1397.13 142.491 1397.13 140.768 1397.94 139.379L1423.32 95.7806C1424.12 94.4034 1425.61 93.554 1427.2 93.554Z" fill="black"/>
<path d="M1427.2 189.256C1425.77 189.256 1424.43 188.492 1423.72 187.254L1398.33 143.656C1397.61 142.406 1397.61 140.859 1398.33 139.609L1423.72 96.0114C1424.43 94.7798 1425.77 94.0093 1427.2 94.0093H1443.24C1444.71 94.0093 1446.02 94.7677 1446.74 96.0418C1447.47 97.3159 1447.46 98.8266 1446.71 100.082L1423.58 139.118C1422.67 140.665 1422.67 142.594 1423.58 144.142L1446.71 183.177C1447.46 184.439 1447.47 185.95 1446.74 187.218C1446.02 188.492 1444.71 189.25 1443.24 189.25H1427.2M1427.2 189.711H1443.24C1446.72 189.711 1448.87 185.938 1447.1 182.953L1423.97 143.917C1423.14 142.51 1423.14 140.762 1423.97 139.355L1447.1 100.319C1448.87 97.3341 1446.71 93.5603 1443.24 93.5603H1427.2C1425.6 93.5603 1424.12 94.4097 1423.32 95.787L1397.94 139.385C1397.13 140.774 1397.13 142.497 1397.94 143.887L1423.32 187.485C1424.12 188.862 1425.61 189.711 1427.2 189.711Z" fill="url(#paint15_linear_3793_11129)"/>
</g>
<g opacity="0.4">
<path d="M1308.86 63.8802H1324.91C1328.38 63.8802 1330.53 67.6539 1328.77 70.6389L1305.64 109.674C1304.8 111.082 1304.8 112.829 1305.64 114.237L1328.77 153.273C1330.53 156.258 1328.38 160.031 1324.91 160.031H1308.86C1307.27 160.031 1305.79 159.182 1304.99 157.805L1279.6 114.207C1278.8 112.817 1278.8 111.094 1279.6 109.705L1304.99 66.1068C1305.79 64.7296 1307.27 63.8802 1308.86 63.8802Z" fill="url(#paint16_linear_3793_11129)"/>
<path opacity="0.25" d="M1308.86 63.8802H1324.91C1328.38 63.8802 1330.53 67.6539 1328.77 70.6389L1305.64 109.674C1304.8 111.082 1304.8 112.829 1305.64 114.237L1328.77 153.273C1330.53 156.258 1328.38 160.031 1324.91 160.031H1308.86C1307.27 160.031 1305.79 159.182 1304.99 157.805L1279.6 114.207C1278.8 112.817 1278.8 111.094 1279.6 109.705L1304.99 66.1068C1305.79 64.7296 1307.27 63.8802 1308.86 63.8802Z" fill="black"/>
<path d="M1308.86 159.583C1307.44 159.583 1306.1 158.818 1305.38 157.58L1280 113.982C1279.28 112.733 1279.28 111.185 1280 109.936L1305.38 66.3376C1306.1 65.106 1307.44 64.3355 1308.86 64.3355H1324.91C1326.37 64.3355 1327.69 65.0939 1328.41 66.3679C1329.13 67.642 1329.12 69.1527 1328.38 70.4086L1305.25 109.444C1304.33 110.991 1304.33 112.921 1305.25 114.468L1328.38 153.503C1329.12 154.765 1329.14 156.276 1328.41 157.544C1327.69 158.818 1326.37 159.576 1324.91 159.576H1308.86M1308.86 160.038H1324.91C1328.38 160.038 1330.53 156.264 1328.77 153.279L1305.64 114.243C1304.8 112.836 1304.8 111.088 1305.64 109.681L1328.77 70.6452C1330.53 67.6602 1328.38 63.8865 1324.91 63.8865H1308.86C1307.27 63.8865 1305.79 64.7359 1304.99 66.1131L1279.6 109.711C1278.8 111.101 1278.8 112.824 1279.6 114.213L1304.99 157.811C1305.79 159.188 1307.27 160.038 1308.86 160.038Z" fill="url(#paint17_linear_3793_11129)"/>
</g>
<g opacity="0.4">
<path d="M1368.61 167.803H1376.39C1378.07 167.803 1379.11 169.629 1378.26 171.079L1367.05 189.996C1366.65 190.676 1366.65 191.525 1367.05 192.205L1378.26 211.122C1379.11 212.566 1378.07 214.398 1376.39 214.398H1368.61C1367.84 214.398 1367.12 213.986 1366.73 213.318L1354.43 192.193C1354.03 191.519 1354.03 190.688 1354.43 190.009L1366.73 168.883C1367.12 168.21 1367.84 167.803 1368.61 167.803Z" fill="url(#paint18_linear_3793_11129)"/>
<path opacity="0.25" d="M1368.61 167.803H1376.39C1378.07 167.803 1379.11 169.629 1378.26 171.079L1367.05 189.996C1366.65 190.676 1366.65 191.525 1367.05 192.205L1378.26 211.122C1379.11 212.566 1378.07 214.398 1376.39 214.398H1368.61C1367.84 214.398 1367.12 213.986 1366.73 213.318L1354.43 192.193C1354.03 191.519 1354.03 190.688 1354.43 190.009L1366.73 168.883C1367.12 168.21 1367.84 167.803 1368.61 167.803Z" fill="black"/>
<path d="M1368.61 213.943C1368 213.943 1367.43 213.616 1367.13 213.088L1354.82 191.962C1354.51 191.428 1354.51 190.767 1354.82 190.239L1367.13 169.113C1367.43 168.586 1368 168.258 1368.61 168.258H1376.39C1377.01 168.258 1377.57 168.58 1377.88 169.126C1378.19 169.666 1378.18 170.315 1377.87 170.849L1366.66 189.766C1366.17 190.591 1366.17 191.616 1366.66 192.441L1377.87 211.359C1378.18 211.899 1378.19 212.542 1377.88 213.082C1377.57 213.622 1377.01 213.949 1376.39 213.949H1368.61M1368.61 214.398H1376.39C1378.07 214.398 1379.11 212.572 1378.26 211.122L1367.05 192.205C1366.65 191.525 1366.65 190.676 1367.05 189.996L1378.26 171.079C1379.11 169.635 1378.07 167.803 1376.39 167.803H1368.61C1367.84 167.803 1367.12 168.216 1366.73 168.883L1354.43 190.009C1354.03 190.682 1354.03 191.513 1354.43 192.193L1366.73 213.318C1367.12 213.986 1367.84 214.398 1368.61 214.398Z" fill="url(#paint19_linear_3793_11129)"/>
</g>
<g opacity="0.4">
<path d="M1353.13 167.803H1360.91C1362.59 167.803 1363.64 169.629 1362.78 171.079L1351.57 189.996C1351.17 190.676 1351.17 191.525 1351.57 192.205L1362.78 211.122C1363.64 212.566 1362.59 214.398 1360.91 214.398H1353.13C1352.36 214.398 1351.64 213.986 1351.25 213.318L1338.95 192.193C1338.56 191.519 1338.56 190.688 1338.95 190.009L1351.25 168.883C1351.64 168.21 1352.36 167.803 1353.13 167.803Z" fill="url(#paint20_linear_3793_11129)"/>
<path opacity="0.25" d="M1353.13 167.803H1360.91C1362.59 167.803 1363.64 169.629 1362.78 171.079L1351.57 189.996C1351.17 190.676 1351.17 191.525 1351.57 192.205L1362.78 211.122C1363.64 212.566 1362.59 214.398 1360.91 214.398H1353.13C1352.36 214.398 1351.64 213.986 1351.25 213.318L1338.95 192.193C1338.56 191.519 1338.56 190.688 1338.95 190.009L1351.25 168.883C1351.64 168.21 1352.36 167.803 1353.13 167.803Z" fill="black"/>
<path d="M1353.13 213.943C1352.52 213.943 1351.95 213.616 1351.65 213.088L1339.35 191.962C1339.04 191.428 1339.04 190.767 1339.35 190.239L1351.65 169.113C1351.95 168.586 1352.52 168.258 1353.13 168.258H1360.91C1361.53 168.258 1362.09 168.58 1362.4 169.126C1362.71 169.666 1362.71 170.315 1362.39 170.849L1351.18 189.766C1350.7 190.591 1350.7 191.616 1351.18 192.441L1362.39 211.359C1362.71 211.899 1362.71 212.542 1362.4 213.082C1362.09 213.622 1361.53 213.949 1360.91 213.949H1353.13M1353.13 214.398H1360.91C1362.59 214.398 1363.64 212.572 1362.78 211.122L1351.57 192.205C1351.17 191.525 1351.17 190.676 1351.57 189.996L1362.78 171.079C1363.64 169.635 1362.59 167.803 1360.91 167.803H1353.13C1352.36 167.803 1351.64 168.216 1351.25 168.883L1338.95 190.009C1338.56 190.682 1338.56 191.513 1338.95 192.193L1351.25 213.318C1351.64 213.986 1352.36 214.398 1353.13 214.398Z" fill="url(#paint21_linear_3793_11129)"/>
</g>
<path d="M1406.49 -35.0001H1455.54C1466.16 -35.0001 1472.74 -23.4666 1467.33 -14.3418L1396.63 104.985C1394.08 109.287 1394.08 114.626 1396.63 118.927L1467.33 238.254C1472.74 247.379 1466.16 258.912 1455.54 258.912H1406.49C1401.61 258.912 1397.1 256.316 1394.64 252.105L1317.06 118.836C1314.58 114.583 1314.58 109.329 1317.06 105.076L1394.64 -28.1868C1397.1 -32.4034 1401.61 -35.0001 1406.49 -35.0001Z" fill="url(#paint22_linear_3793_11129)"/>
<path opacity="0.5" d="M1406.49 -35.0001H1455.54C1466.16 -35.0001 1472.74 -23.4666 1467.33 -14.3418L1396.63 104.985C1394.08 109.287 1394.08 114.626 1396.63 118.927L1467.33 238.254C1472.74 247.379 1466.16 258.912 1455.54 258.912H1406.49C1401.61 258.912 1397.1 256.316 1394.64 252.105L1317.06 118.836C1314.58 114.583 1314.58 109.329 1317.06 105.076L1394.64 -28.1868C1397.1 -32.4034 1401.61 -35.0001 1406.49 -35.0001Z" fill="white"/>
<path opacity="0.25" d="M1406.49 -35.0001H1455.54C1466.16 -35.0001 1472.74 -23.4666 1467.33 -14.3418L1396.63 104.985C1394.08 109.287 1394.08 114.626 1396.63 118.927L1467.33 238.254C1472.74 247.379 1466.16 258.912 1455.54 258.912H1406.49C1401.61 258.912 1397.1 256.316 1394.64 252.105L1317.06 118.836C1314.58 114.583 1314.58 109.329 1317.06 105.076L1394.64 -28.1868C1397.1 -32.4034 1401.61 -35.0001 1406.49 -35.0001Z" fill="black"/>
<path d="M1406.49 258.912V258.457C1401.79 258.457 1397.4 255.933 1395.04 251.875L1317.45 118.606C1315.06 114.504 1315.06 109.408 1317.45 105.301L1395.04 -27.9623C1397.4 -32.0211 1401.79 -34.545 1406.49 -34.545H1455.54C1460.35 -34.545 1464.66 -32.0514 1467.05 -27.8652C1469.44 -23.685 1469.4 -18.7161 1466.94 -14.5723L1396.23 104.755C1393.6 109.196 1393.6 114.717 1396.23 119.158L1466.95 238.485C1469.4 242.628 1469.44 247.597 1467.05 251.777C1464.67 255.958 1460.37 258.457 1455.54 258.457H1406.5V258.912M1406.49 258.912H1455.54C1466.16 258.912 1472.74 247.379 1467.33 238.254L1396.63 118.927C1394.08 114.626 1394.08 109.287 1396.63 104.985L1467.33 -14.3356C1472.74 -23.4605 1466.16 -34.994 1455.54 -34.994H1406.49C1401.61 -34.994 1397.1 -32.4033 1394.64 -28.1867L1317.06 105.082C1314.58 109.335 1314.58 114.589 1317.06 118.842L1394.64 252.111C1397.1 256.322 1401.61 258.912 1406.49 258.912Z" fill="url(#paint23_linear_3793_11129)"/>
<g opacity="0.75">
<path d="M1367.86 35.0192H1379.47C1381.99 35.0192 1383.55 37.7494 1382.27 39.9153L1365.52 68.1819C1364.92 69.2011 1364.92 70.4692 1365.52 71.4824L1382.27 99.7489C1383.55 101.909 1381.99 104.645 1379.47 104.645H1367.86C1366.7 104.645 1365.63 104.032 1365.05 103.031L1346.67 71.4581C1346.08 70.4509 1346.08 69.2072 1346.67 68.2001L1365.05 36.627C1365.63 35.632 1366.7 35.0192 1367.86 35.0192Z" fill="url(#paint24_linear_3793_11129)"/>
<path opacity="0.25" d="M1367.86 35.0192H1379.47C1381.99 35.0192 1383.55 37.7494 1382.27 39.9153L1365.52 68.1819C1364.92 69.2011 1364.92 70.4692 1365.52 71.4824L1382.27 99.7489C1383.55 101.909 1381.99 104.645 1379.47 104.645H1367.86C1366.7 104.645 1365.63 104.032 1365.05 103.031L1346.67 71.4581C1346.08 70.4509 1346.08 69.2072 1346.67 68.2001L1365.05 36.627C1365.63 35.632 1366.7 35.0192 1367.86 35.0192Z" fill="black"/>
<path d="M1367.86 104.197C1366.87 104.197 1365.94 103.663 1365.45 102.807L1347.07 71.2341C1346.56 70.3726 1346.56 69.2987 1347.07 68.4311L1365.45 36.858C1365.94 36.0026 1366.87 35.4687 1367.86 35.4687H1379.47C1380.49 35.4687 1381.39 35.9965 1381.9 36.8762C1382.4 37.756 1382.39 38.8056 1381.87 39.6792L1365.12 67.9458C1364.44 69.1046 1364.44 70.5486 1365.12 71.7134L1381.87 99.98C1382.39 100.854 1382.4 101.897 1381.9 102.783C1381.39 103.663 1380.49 104.191 1379.47 104.191H1367.86M1367.86 104.652H1379.47C1381.99 104.652 1383.55 101.921 1382.27 99.7555L1365.52 71.489C1364.92 70.4697 1364.92 69.2017 1365.52 68.1885L1382.27 39.9219C1383.55 37.7621 1381.99 35.0258 1379.47 35.0258H1367.86C1366.7 35.0258 1365.63 35.6386 1365.05 36.6396L1346.67 68.2127C1346.08 69.2199 1346.08 70.4636 1346.67 71.4707L1365.05 103.044C1365.63 104.033 1366.7 104.652 1367.86 104.652Z" fill="url(#paint25_linear_3793_11129)"/>
</g>
<g opacity="0.75">
<path d="M1392.46 35.0192H1404.08C1406.59 35.0192 1408.15 37.7494 1406.87 39.9153L1390.12 68.1819C1389.52 69.2011 1389.52 70.4692 1390.12 71.4824L1406.87 99.7489C1408.15 101.909 1406.59 104.645 1404.08 104.645H1392.46C1391.3 104.645 1390.24 104.032 1389.65 103.031L1371.27 71.4581C1370.68 70.4509 1370.68 69.2072 1371.27 68.2001L1389.65 36.627C1390.24 35.632 1391.3 35.0192 1392.46 35.0192Z" fill="url(#paint26_linear_3793_11129)"/>
<path opacity="0.25" d="M1392.46 35.0192H1404.08C1406.59 35.0192 1408.15 37.7494 1406.87 39.9153L1390.12 68.1819C1389.52 69.2011 1389.52 70.4692 1390.12 71.4824L1406.87 99.7489C1408.15 101.909 1406.59 104.645 1404.08 104.645H1392.46C1391.3 104.645 1390.24 104.032 1389.65 103.031L1371.27 71.4581C1370.68 70.4509 1370.68 69.2072 1371.27 68.2001L1389.65 36.627C1390.24 35.632 1391.3 35.0192 1392.46 35.0192Z" fill="black"/>
<path d="M1392.46 104.196C1391.47 104.196 1390.55 103.662 1390.05 102.807L1371.67 71.2339C1371.16 70.3724 1371.16 69.2985 1371.67 68.4309L1390.05 36.8578C1390.55 36.0023 1391.47 35.4685 1392.46 35.4685H1404.08C1405.09 35.4685 1406 35.9963 1406.5 36.876C1407 37.7557 1406.99 38.8053 1406.48 39.679L1389.73 67.9455C1389.04 69.1043 1389.04 70.5483 1389.73 71.7132L1406.48 99.9797C1406.99 100.853 1407 101.897 1406.5 102.783C1406 103.662 1405.09 104.19 1404.08 104.19H1392.46M1392.46 104.651H1404.08C1406.59 104.651 1408.15 101.921 1406.87 99.7552L1390.12 71.4887C1389.52 70.4694 1389.52 69.2014 1390.12 68.1882L1406.87 39.9217C1408.15 37.7618 1406.59 35.0256 1404.08 35.0256H1392.46C1391.3 35.0256 1390.24 35.6383 1389.65 36.6394L1371.27 68.2125C1370.68 69.2196 1370.68 70.4634 1371.27 71.4705L1389.65 103.044C1390.24 104.033 1391.3 104.651 1392.46 104.651Z" fill="url(#paint27_linear_3793_11129)"/>
</g>
</g>
<defs>
<linearGradient id="paint0_linear_3793_11129" x1="33.0545" y1="229.279" x2="79.595" y2="229.279" gradientUnits="userSpaceOnUse">
<stop offset="0.0168" stop-color="white" stop-opacity="0.2"/>
<stop offset="1" stop-color="white" stop-opacity="0.9"/>
</linearGradient>
<linearGradient id="paint1_linear_3793_11129" x1="53.729" y1="277.356" x2="53.729" y2="181.202" gradientUnits="userSpaceOnUse">
<stop offset="0.3966" stop-color="white" stop-opacity="0.2"/>
<stop offset="0.5" stop-color="white"/>
<stop offset="0.5983" stop-color="white" stop-opacity="0.2"/>
</linearGradient>
<linearGradient id="paint2_linear_3793_11129" x1="151.392" y1="258.955" x2="197.933" y2="258.955" gradientUnits="userSpaceOnUse">
<stop offset="0.0168" stop-color="white" stop-opacity="0.2"/>
<stop offset="1" stop-color="white" stop-opacity="0.9"/>
</linearGradient>
<linearGradient id="paint3_linear_3793_11129" x1="172.067" y1="307.032" x2="172.067" y2="210.878" gradientUnits="userSpaceOnUse">
<stop offset="0.3966" stop-color="white" stop-opacity="0.2"/>
<stop offset="0.5" stop-color="white"/>
<stop offset="0.5983" stop-color="white" stop-opacity="0.2"/>
</linearGradient>
<linearGradient id="paint4_linear_3793_11129" x1="99.8959" y1="179.813" x2="122.45" y2="179.813" gradientUnits="userSpaceOnUse">
<stop offset="0.0168" stop-color="white" stop-opacity="0.2"/>
<stop offset="1" stop-color="white" stop-opacity="0.9"/>
</linearGradient>
<linearGradient id="paint5_linear_3793_11129" x1="109.915" y1="203.111" x2="109.915" y2="156.514" gradientUnits="userSpaceOnUse">
<stop offset="0.3966" stop-color="white" stop-opacity="0.2"/>
<stop offset="0.5" stop-color="white"/>
<stop offset="0.5983" stop-color="white" stop-opacity="0.2"/>
</linearGradient>
<linearGradient id="paint6_linear_3793_11129" x1="115.372" y1="179.813" x2="137.926" y2="179.813" gradientUnits="userSpaceOnUse">
<stop offset="0.0168" stop-color="white" stop-opacity="0.2"/>
<stop offset="1" stop-color="white" stop-opacity="0.9"/>
</linearGradient>
<linearGradient id="paint7_linear_3793_11129" x1="125.391" y1="203.111" x2="125.391" y2="156.514" gradientUnits="userSpaceOnUse">
<stop offset="0.3966" stop-color="white" stop-opacity="0.2"/>
<stop offset="0.5" stop-color="white"/>
<stop offset="0.5983" stop-color="white" stop-opacity="0.2"/>
</linearGradient>
<linearGradient id="paint8_linear_3793_11129" x1="20.8372" y1="258.954" x2="163.096" y2="258.954" gradientUnits="userSpaceOnUse">
<stop offset="0.0168" stop-color="white" stop-opacity="0.2"/>
<stop offset="1" stop-color="white" stop-opacity="0.9"/>
</linearGradient>
<linearGradient id="paint9_linear_3793_11129" x1="84.0321" y1="405.91" x2="84.0321" y2="111.999" gradientUnits="userSpaceOnUse">
<stop offset="0.3966" stop-color="white" stop-opacity="0.2"/>
<stop offset="0.5" stop-color="white"/>
<stop offset="0.5983" stop-color="white" stop-opacity="0.2"/>
</linearGradient>
<linearGradient id="paint10_linear_3793_11129" x1="96.817" y1="301.078" x2="130.519" y2="301.078" gradientUnits="userSpaceOnUse">
<stop offset="0.0168" stop-color="white" stop-opacity="0.2"/>
<stop offset="1" stop-color="white" stop-opacity="0.9"/>
</linearGradient>
<linearGradient id="paint11_linear_3793_11129" x1="111.788" y1="335.892" x2="111.788" y2="266.263" gradientUnits="userSpaceOnUse">
<stop offset="0.3966" stop-color="white" stop-opacity="0.2"/>
<stop offset="0.5" stop-color="white"/>
<stop offset="0.5983" stop-color="white" stop-opacity="0.2"/>
</linearGradient>
<linearGradient id="paint12_linear_3793_11129" x1="72.2137" y1="301.078" x2="105.915" y2="301.078" gradientUnits="userSpaceOnUse">
<stop offset="0.0168" stop-color="white" stop-opacity="0.2"/>
<stop offset="1" stop-color="white" stop-opacity="0.9"/>
</linearGradient>
<linearGradient id="paint13_linear_3793_11129" x1="87.1848" y1="335.893" x2="87.1848" y2="266.264" gradientUnits="userSpaceOnUse">
<stop offset="0.3966" stop-color="white" stop-opacity="0.2"/>
<stop offset="0.5" stop-color="white"/>
<stop offset="0.5983" stop-color="white" stop-opacity="0.2"/>
</linearGradient>
<linearGradient id="paint14_linear_3793_11129" x1="1443.21" y1="141.633" x2="1396.67" y2="141.633" gradientUnits="userSpaceOnUse">
<stop offset="0.0168" stop-color="white" stop-opacity="0.2"/>
<stop offset="1" stop-color="white" stop-opacity="0.9"/>
</linearGradient>
<linearGradient id="paint15_linear_3793_11129" x1="1422.54" y1="93.5565" x2="1422.54" y2="189.711" gradientUnits="userSpaceOnUse">
<stop offset="0.3966" stop-color="white" stop-opacity="0.2"/>
<stop offset="0.5" stop-color="white"/>
<stop offset="0.5983" stop-color="white" stop-opacity="0.2"/>
</linearGradient>
<linearGradient id="paint16_linear_3793_11129" x1="1324.87" y1="111.958" x2="1278.33" y2="111.958" gradientUnits="userSpaceOnUse">
<stop offset="0.0168" stop-color="white" stop-opacity="0.2"/>
<stop offset="1" stop-color="white" stop-opacity="0.9"/>
</linearGradient>
<linearGradient id="paint17_linear_3793_11129" x1="1304.2" y1="63.8806" x2="1304.2" y2="160.035" gradientUnits="userSpaceOnUse">
<stop offset="0.3966" stop-color="white" stop-opacity="0.2"/>
<stop offset="0.5" stop-color="white"/>
<stop offset="0.5983" stop-color="white" stop-opacity="0.2"/>
</linearGradient>
<linearGradient id="paint18_linear_3793_11129" x1="1376.37" y1="191.1" x2="1353.82" y2="191.1" gradientUnits="userSpaceOnUse">
<stop offset="0.0168" stop-color="white" stop-opacity="0.2"/>
<stop offset="1" stop-color="white" stop-opacity="0.9"/>
</linearGradient>
<linearGradient id="paint19_linear_3793_11129" x1="1366.35" y1="167.801" x2="1366.35" y2="214.398" gradientUnits="userSpaceOnUse">
<stop offset="0.3966" stop-color="white" stop-opacity="0.2"/>
<stop offset="0.5" stop-color="white"/>
<stop offset="0.5983" stop-color="white" stop-opacity="0.2"/>
</linearGradient>
<linearGradient id="paint20_linear_3793_11129" x1="1360.89" y1="191.1" x2="1338.34" y2="191.1" gradientUnits="userSpaceOnUse">
<stop offset="0.0168" stop-color="white" stop-opacity="0.2"/>
<stop offset="1" stop-color="white" stop-opacity="0.9"/>
</linearGradient>
<linearGradient id="paint21_linear_3793_11129" x1="1350.87" y1="167.801" x2="1350.87" y2="214.398" gradientUnits="userSpaceOnUse">
<stop offset="0.3966" stop-color="white" stop-opacity="0.2"/>
<stop offset="0.5" stop-color="white"/>
<stop offset="0.5983" stop-color="white" stop-opacity="0.2"/>
</linearGradient>
<linearGradient id="paint22_linear_3793_11129" x1="1455.43" y1="111.958" x2="1313.17" y2="111.958" gradientUnits="userSpaceOnUse">
<stop offset="0.0168" stop-color="white" stop-opacity="0.2"/>
<stop offset="1" stop-color="white" stop-opacity="0.9"/>
</linearGradient>
<linearGradient id="paint23_linear_3793_11129" x1="1392.23" y1="-34.9977" x2="1392.23" y2="258.913" gradientUnits="userSpaceOnUse">
<stop offset="0.3966" stop-color="white" stop-opacity="0.2"/>
<stop offset="0.5" stop-color="white"/>
<stop offset="0.5983" stop-color="white" stop-opacity="0.2"/>
</linearGradient>
<linearGradient id="paint24_linear_3793_11129" x1="1379.45" y1="69.8342" x2="1345.75" y2="69.8342" gradientUnits="userSpaceOnUse">
<stop offset="0.0168" stop-color="white" stop-opacity="0.2"/>
<stop offset="1" stop-color="white" stop-opacity="0.9"/>
</linearGradient>
<linearGradient id="paint25_linear_3793_11129" x1="1364.48" y1="35.02" x2="1364.48" y2="104.649" gradientUnits="userSpaceOnUse">
<stop offset="0.3966" stop-color="white" stop-opacity="0.2"/>
<stop offset="0.5" stop-color="white"/>
<stop offset="0.5983" stop-color="white" stop-opacity="0.2"/>
</linearGradient>
<linearGradient id="paint26_linear_3793_11129" x1="1404.05" y1="69.8342" x2="1370.35" y2="69.8342" gradientUnits="userSpaceOnUse">
<stop offset="0.0168" stop-color="white" stop-opacity="0.2"/>
<stop offset="1" stop-color="white" stop-opacity="0.9"/>
</linearGradient>
<linearGradient id="paint27_linear_3793_11129" x1="1389.08" y1="35.0198" x2="1389.08" y2="104.649" gradientUnits="userSpaceOnUse">
<stop offset="0.3966" stop-color="white" stop-opacity="0.2"/>
<stop offset="0.5" stop-color="white"/>
<stop offset="0.5983" stop-color="white" stop-opacity="0.2"/>
</linearGradient>
<clipPath id="clip0_3793_11129">
<rect width="1440" height="358" fill="white"/>
</clipPath>
</defs>
</svg>
