<svg width="48" height="43" viewBox="0 0 48 43" fill="none" xmlns="http://www.w3.org/2000/svg">
<path d="M15.916 4.98466L11.4416 7.74368C6.20653 10.9717 6.22815 18.5904 11.4814 21.7886L20.4998 27.2791C22.6497 28.588 25.3503 28.588 27.5002 27.2791L31.9903 24.5455C36.529 21.7823 34.5704 14.7987 29.2567 14.7987C26.3535 14.7987 24 12.4292 24 9.52601C24 5.37646 19.4481 2.80675 15.916 4.98466Z" fill="#FFDE00"/>
<path d="M18.8412 39.158L7.85776 32.8056C6.54003 32.0435 5.72852 30.6367 5.72852 29.1145C5.72852 25.8159 9.3132 23.7665 12.1557 25.4398L19.2851 29.6367C22.101 31.2944 25.5944 31.2944 28.4104 29.6367L35.5397 25.4398C38.3822 23.7665 41.9669 25.8159 41.9669 29.1145C41.9669 30.6367 41.1554 32.0435 39.8377 32.8056L28.8542 39.158C25.7569 40.9493 21.9385 40.9493 18.8412 39.158Z" fill="#303DBF"/>
</svg>
