<?xml version="1.0" encoding="UTF-8"?>
<svg id="Layer_1" data-name="Layer 1" xmlns="http://www.w3.org/2000/svg" viewBox="0 0 1738.28 452.84">
  <defs>
    <style>
      .cls-1 {
        fill: #ffde00;
      }

      .cls-1, .cls-2 {
        stroke-width: 0px;
      }

      .cls-2 {
        fill: #303dbf;
      }
    </style>
  </defs>
  <path class="cls-1" d="M221.48,2.85L8.89,134.62c-11.9,7.37-11.85,24.7.09,32l231.38,141.6c6.02,3.68,13.6,3.68,19.62,0l200.51-122.7c16.18-9.9,9.16-34.82-9.81-34.82h-181.72c-10.38,0-18.79-8.41-18.79-18.79V18.82c0-14.73-16.17-23.73-28.69-15.97Z"/>
  <path class="cls-2" d="M46.66,327.69v-67.23c0-14.55,15.83-23.58,28.36-16.17l163.81,96.93c5.9,3.49,13.24,3.49,19.14,0l163.81-96.93c12.53-7.41,28.36,1.62,28.36,16.17v67.23c0,6.69-3.56,12.88-9.35,16.25l-182.95,106.36c-5.84,3.39-13.05,3.39-18.89,0l-182.95-106.36c-5.79-3.36-9.35-9.55-9.35-16.25Z"/>
  <path class="cls-2" d="M627.95,328.23c5.79.26,11.44-.53,16.97-2.37,5.52-1.84,10.92-4.21,16.18-7.1,2.1-1.05,4.08-2.24,5.92-3.55,1.84-1.31,3.55-1.97,5.13-1.97,2.37,0,4.34,1.18,5.92,3.55l14.6,23.28c1.32,2.1,1.97,3.81,1.97,5.13,0,2.1-.66,3.95-1.97,5.52-1.31,1.31-2.76,2.63-4.34,3.95-8.42,6.31-17.63,11.31-27.62,15-9.73,3.68-20.26,5.52-31.57,5.52-13.68,0-26.7-2.63-39.07-7.89-12.1-5.26-22.76-12.36-31.96-21.31-8.94-9.21-16.18-19.99-21.7-32.36-5.26-12.36-7.89-25.52-7.89-39.46s2.63-26.57,7.89-38.67c5.26-12.36,12.36-23.15,21.31-32.36,8.94-9.47,19.34-16.84,31.17-22.1,11.84-5.52,24.47-8.29,37.88-8.29,12.63,0,24.6,2.37,35.91,7.1,11.31,4.74,21.18,11.18,29.6,19.34,8.68,8.16,15.39,17.76,20.13,28.81,5,10.79,7.5,22.36,7.5,34.73,0,10.26-.92,17.76-2.76,22.49-1.58,4.47-5.26,6.71-11.05,6.71h-122.73c.53,5.79,2.24,10.92,5.13,15.39,2.89,4.47,6.45,8.29,10.65,11.44,4.21,3.16,8.81,5.52,13.81,7.1,5.26,1.58,10.26,2.37,15,2.37ZM583.36,254.05h84.84c-.53-10-4.87-18.55-13.02-25.65-7.89-7.1-17.76-10.65-29.6-10.65-4.73,0-9.47.92-14.21,2.76-4.74,1.84-9.08,4.47-13.02,7.89-3.95,3.16-7.23,6.97-9.87,11.44-2.63,4.47-4.34,9.21-5.13,14.21Z"/>
  <path class="cls-2" d="M948.1,87.51v273.08c0,6.31-3.29,9.6-9.87,9.87h-17.36c-5,0-9.47-.39-13.42-1.18-3.68-1.05-5.92-3.68-6.71-7.89-.79-4.47-1.71-9.21-2.76-14.21-6.58,9.47-13.94,16.44-22.1,20.92-7.89,4.21-18.55,6.31-31.96,6.31s-26.18-2.63-37.49-7.89c-11.05-5.26-20.65-12.36-28.81-21.31-8.16-8.94-14.47-19.47-18.94-31.57-4.47-12.36-6.71-25.39-6.71-39.07s2.24-26.97,6.71-39.07c4.47-12.1,10.65-22.63,18.55-31.57,8.16-9.21,17.89-16.44,29.2-21.7,11.58-5.26,24.33-7.89,38.28-7.89,12.63,0,22.63,2.1,29.99,6.31,7.37,4.21,13.81,9.73,19.34,16.57v-109.7c0-6.58,3.42-9.87,10.26-9.87h32.36c2.89,0,5.52.92,7.89,2.76,2.37,1.84,3.55,4.21,3.55,7.1ZM899.16,274.96c0-7.1-1.18-13.81-3.55-20.13-2.37-6.58-5.66-12.23-9.87-16.97-3.95-4.74-8.81-8.42-14.6-11.05-5.79-2.89-12.23-4.34-19.34-4.34s-14.08,1.45-20.13,4.34c-5.79,2.63-10.65,6.31-14.6,11.05-3.95,4.73-6.97,10.39-9.08,16.97-2.1,6.31-3.16,13.02-3.16,20.13s1.05,13.81,3.16,20.13c2.1,6.31,5.13,11.84,9.08,16.57,3.95,4.73,8.81,8.55,14.6,11.44,6.05,2.63,12.76,3.95,20.13,3.95,6.84,0,13.15-1.32,18.94-3.95,5.79-2.89,10.79-6.58,15-11.05,4.21-4.74,7.5-10.26,9.87-16.57,2.37-6.31,3.55-13.02,3.55-20.13v-.4Z"/>
  <path class="cls-2" d="M1005.35,176.7h26.05c2.37,0,4.34.92,5.92,2.76,1.57,1.84,2.89,4.08,3.94,6.71,1.05,2.37,1.84,5,2.37,7.89.79,2.89,1.32,5.52,1.57,7.89,5.53-6.58,12.76-12.63,21.7-18.15,8.95-5.79,19.74-8.68,32.36-8.68,13.41,0,25.13,3.02,35.13,9.08,9.99,5.79,17.62,12.89,22.88,21.31,6.31-9.21,14.87-16.71,25.66-22.49,11.04-6.05,22.49-9.08,34.33-9.08,13.41,0,24.73,2.1,33.94,6.31,9.47,4.21,17.23,10.13,23.29,17.76,6.31,7.37,10.92,16.05,13.81,26.04,3.16,9.73,4.87,20.39,5.13,31.96v104.97c0,3.68-1.19,6.18-3.55,7.5-2.1,1.32-4.87,1.97-8.29,1.97h-29.99c-4.21,0-7.37-.53-9.47-1.58-2.1-1.31-3.16-3.81-3.16-7.5v-100.23c0-10-2.23-18.42-6.71-25.26-4.21-6.84-11.05-10.26-20.52-10.26-4.47,0-9.08.92-13.82,2.76-4.46,1.84-8.67,4.34-12.63,7.5-3.68,3.16-6.71,6.84-9.08,11.05-2.36,4.21-3.55,8.81-3.55,13.81v100.23c0,3.68-1.05,6.18-3.16,7.5-2.1,1.32-5,1.97-8.68,1.97h-32.35c-3.95,0-6.84-.53-8.68-1.58-1.58-1.31-2.37-3.81-2.37-7.5v-102.21c0-10.79-2.76-19.07-8.29-24.86-5.26-5.79-12.63-8.68-22.1-8.68-4.47,0-8.95.92-13.41,2.76-4.47,1.58-8.56,3.95-12.23,7.1-3.42,3.16-6.31,6.84-8.68,11.05-2.1,4.21-3.16,8.68-3.16,13.42v102.21c0,5.52-3.29,8.29-9.86,8.29h-33.95c-7.37,0-11.04-2.89-11.04-8.68v-172.84c0-3.68,1.18-6.58,3.55-8.68,2.37-2.37,4.73-3.55,7.1-3.55Z"/>
  <path class="cls-2" d="M1321.86,274.17c0-13.94,2.63-27.1,7.9-39.46,5.26-12.36,12.49-23.15,21.7-32.36,9.47-9.21,20.39-16.44,32.75-21.7,12.37-5.26,25.66-7.89,39.86-7.89s27.5,2.63,39.87,7.89c12.36,5.26,23.15,12.5,32.35,21.7,9.21,9.21,16.44,19.99,21.7,32.36,5.53,12.36,8.29,25.52,8.29,39.46s-2.76,27.1-8.29,39.46c-5.26,12.1-12.49,22.76-21.7,31.96-9.2,8.94-19.99,16.05-32.35,21.31-12.37,5.26-25.66,7.89-39.87,7.89s-27.49-2.63-39.86-7.89c-12.36-5.26-23.28-12.36-32.75-21.31-9.21-9.21-16.44-19.86-21.7-31.96-5.27-12.36-7.9-25.52-7.9-39.46ZM1374.35,274.57c0,7.1,1.19,13.81,3.55,20.13,2.64,6.05,6.19,11.44,10.66,16.18,4.47,4.74,9.74,8.42,15.78,11.05,6.05,2.63,12.63,3.95,19.73,3.95s13.69-1.31,19.74-3.95c6.05-2.63,11.31-6.31,15.78-11.05,4.47-4.74,8.02-10.13,10.66-16.18,2.63-6.31,3.94-13.02,3.94-20.13s-1.32-13.68-3.94-19.73c-2.64-6.31-6.19-11.84-10.66-16.57-4.47-4.74-9.74-8.42-15.78-11.05-6.05-2.89-12.63-4.34-19.74-4.34s-13.68,1.45-19.73,4.34c-6.05,2.63-11.31,6.31-15.78,11.05-4.47,4.73-8.02,10.26-10.66,16.57-2.36,6.05-3.55,12.63-3.55,19.73Z"/>
  <path class="cls-2" d="M1601.35,185.78l39.07,108.92,38.68-109.31c2.63-5.79,7.1-8.68,13.41-8.68h35.13c7.1,0,10.65,3.03,10.65,9.08,0,1.05-.27,2.1-.79,3.16-.27,1.05-.39,1.71-.39,1.97l-68.28,167.32c-1.31,3.16-3.16,6.05-5.52,8.68-2.1,2.37-4.87,3.55-8.29,3.55h-29.21c-4.73,0-8.15-1.71-10.26-5.13-2.1-3.42-3.94-7.1-5.53-11.05l-32.35-79.71c-5.53-13.42-11.18-27.23-16.97-41.44-5.53-14.21-11.05-27.75-16.57-40.65-.27-.79-.66-1.84-1.19-3.16-.27-1.58-.39-2.89-.39-3.95,0-5.79,3.42-8.68,10.26-8.68h35.91c6.31,0,10.52,3.03,12.63,9.08Z"/>
</svg>
