<svg width="24" height="24" viewBox="0 0 24 24" fill="none" xmlns="http://www.w3.org/2000/svg">
<path d="M2.36465 12.958C1.98465 10.321 1.79465 9.002 2.33565 7.875C2.87565 6.748 4.02665 6.062 6.32765 4.692L7.71265 3.867C9.80065 2.622 10.8466 2 12.0006 2C13.1546 2 14.1996 2.622 16.2886 3.867L17.6736 4.692C19.9736 6.062 21.1246 6.748 21.6656 7.875C22.2056 9.002 22.0156 10.321 21.6356 12.958L21.3576 14.895C20.8706 18.283 20.6266 19.976 19.4516 20.988C18.2766 22 16.5536 22 13.1066 22H10.8946C7.44765 22 5.72465 22 4.54965 20.988C3.37465 19.976 3.13065 18.283 2.64365 14.895L2.36465 12.958Z" stroke="#475467" stroke-width="1.5"/>
<path d="M15 18H9" stroke="#475467" stroke-width="1.5" stroke-linecap="round"/>
</svg>
