<svg width="22" height="20" viewBox="0 0 22 20" fill="none" xmlns="http://www.w3.org/2000/svg">
<path d="M1.8418 4.63671L8.5318 1.49971C9.22474 1.1707 9.98221 1 10.7493 1C11.5164 1 12.2739 1.1707 12.9668 1.49971L19.6588 4.63671C21.1138 5.31871 21.1138 7.68071 19.6588 8.36271L12.9678 11.4997C12.2749 11.8287 11.5174 11.9994 10.7503 11.9994C9.98321 11.9994 9.22574 11.8287 8.5328 11.4997L3.7498 9.25771" stroke="white" stroke-width="1.5" stroke-linecap="round"/>
<path d="M1.25 13V10.138C1.25 8.858 1.25 8.218 1.58 7.718C1.91 7.217 2.499 6.965 3.674 6.461L4.75 6" stroke="white" stroke-width="1.5" stroke-linecap="round" stroke-linejoin="round"/>
<path d="M17.75 9.5V14.625C17.75 15.633 17.247 16.577 16.365 17.065C14.896 17.88 12.546 19 10.75 19C8.954 19 6.604 17.879 5.135 17.066C4.254 16.577 3.75 15.633 3.75 14.626V9.5" stroke="white" stroke-width="1.5" stroke-linecap="round"/>
</svg>
