<svg width="22" height="20" viewBox="0 0 22 20" fill="none" xmlns="http://www.w3.org/2000/svg">
<path d="M1.5918 4.63671L8.2818 1.49971C8.97474 1.1707 9.73221 1 10.4993 1C11.2664 1 12.0239 1.1707 12.7168 1.49971L19.4088 4.63671C20.8638 5.31871 20.8638 7.68071 19.4088 8.36271L12.7178 11.4997C12.0249 11.8287 11.2674 11.9994 10.5003 11.9994C9.73321 11.9994 8.97574 11.8287 8.2828 11.4997L3.4998 9.25771" stroke="#475467" stroke-width="1.5" stroke-linecap="round"/>
<path d="M1 13V10.138C1 8.858 1 8.218 1.33 7.718C1.66 7.217 2.249 6.965 3.424 6.461L4.5 6" stroke="#475467" stroke-width="1.5" stroke-linecap="round" stroke-linejoin="round"/>
<path d="M17.5 9.5V14.625C17.5 15.633 16.997 16.577 16.115 17.065C14.646 17.88 12.296 19 10.5 19C8.704 19 6.354 17.879 4.885 17.066C4.004 16.577 3.5 15.633 3.5 14.626V9.5" stroke="#475467" stroke-width="1.5" stroke-linecap="round"/>
</svg>
