<svg width="22" height="22" viewBox="0 0 22 22" fill="none" xmlns="http://www.w3.org/2000/svg">
<path d="M1.36465 11.958C0.984649 9.321 0.794649 8.002 1.33565 6.875C1.87565 5.748 3.02665 5.062 5.32765 3.692L6.71265 2.867C8.80065 1.622 9.84665 1 11.0006 1C12.1546 1 13.1996 1.622 15.2886 2.867L16.6736 3.692C18.9736 5.062 20.1246 5.748 20.6656 6.875C21.2056 8.002 21.0156 9.321 20.6356 11.958L20.3576 13.895C19.8706 17.283 19.6266 18.976 18.4516 19.988C17.2766 21 15.5536 21 12.1066 21H9.89465C6.44765 21 4.72465 21 3.54965 19.988C2.37465 18.976 2.13065 17.283 1.64365 13.895L1.36465 11.958Z" stroke="white" stroke-width="1.5"/>
<path d="M14 17H8" stroke="white" stroke-width="1.5" stroke-linecap="round"/>
</svg>
