<svg width="60" height="61" viewBox="0 0 60 61" fill="none" xmlns="http://www.w3.org/2000/svg">
<g clip-path="url(#clip0_3785_11100)">
<path d="M23.8275 23.9044V25.5938H28.5938V23.4488L25.8356 13.7925C25.7416 13.4366 25.7908 13.058 25.9728 12.7381C26.1547 12.4181 26.4549 12.1822 26.8089 12.081C27.1628 11.9799 27.5423 12.0216 27.8659 12.1972C28.1894 12.3727 28.4312 12.6682 28.5394 13.02L30 18.1313L31.4606 13.02C31.5084 12.8392 31.5918 12.6697 31.7059 12.5215C31.82 12.3733 31.9625 12.2494 32.1251 12.1569C32.2876 12.0645 32.467 12.0054 32.6527 11.9831C32.8384 11.9608 33.0267 11.9758 33.2065 12.0272C33.3864 12.0786 33.5541 12.1653 33.7 12.2823C33.8459 12.3994 33.967 12.5443 34.0562 12.7087C34.1454 12.8731 34.2009 13.0536 34.2195 13.2397C34.2381 13.4258 34.2193 13.6137 34.1644 13.7925L31.4063 23.4469V25.5938H36.1725V23.9044C38.4791 22.5496 40.2759 20.4735 41.2858 17.9963C42.2956 15.5191 42.4624 12.7785 41.7603 10.1972C41.0583 7.61589 39.5265 5.33724 37.4012 3.71272C35.2759 2.0882 32.6751 1.20807 30 1.20807C27.3249 1.20807 24.7241 2.0882 22.5988 3.71272C20.4735 5.33724 18.9417 7.61589 18.2397 10.1972C17.5376 12.7785 17.7044 15.5191 18.7142 17.9963C19.7241 20.4735 21.5209 22.5496 23.8275 23.9044ZM23.8275 28.4063V28.875C23.8285 29.745 24.1745 30.579 24.7897 31.1941C25.4048 31.8093 26.2388 32.1553 27.1088 32.1563H32.8913C33.7612 32.1553 34.5952 31.8093 35.2104 31.1941C35.8255 30.579 36.1715 29.745 36.1725 28.875V28.4063H23.8275Z" fill="#303DBF"/>
<path d="M13.5938 14.8125H7.5C7.12704 14.8125 6.76935 14.6644 6.50563 14.4007C6.24191 14.1369 6.09375 13.7792 6.09375 13.4063C6.09375 13.0333 6.24191 12.6756 6.50563 12.4119C6.76935 12.1482 7.12704 12 7.5 12H13.5938C13.9667 12 14.3244 12.1482 14.5881 12.4119C14.8518 12.6756 15 13.0333 15 13.4063C15 13.7792 14.8518 14.1369 14.5881 14.4007C14.3244 14.6644 13.9667 14.8125 13.5938 14.8125ZM8.89219 24.6291C8.71726 24.2999 8.68023 23.9147 8.78923 23.5581C8.89822 23.2016 9.14432 22.903 9.47344 22.7278L14.8547 19.8675C15.0182 19.7741 15.1988 19.7145 15.3857 19.6922C15.5727 19.6699 15.7623 19.6854 15.9431 19.7377C16.124 19.7901 16.2925 19.8782 16.4387 19.9969C16.5849 20.1156 16.7057 20.2624 16.7941 20.4287C16.8824 20.595 16.9365 20.7773 16.9531 20.9649C16.9696 21.1525 16.9483 21.3415 16.8905 21.5206C16.8326 21.6998 16.7394 21.8656 16.6163 22.0081C16.4931 22.1505 16.3427 22.2668 16.1738 22.35L10.7934 25.2103C10.6304 25.2971 10.452 25.3509 10.2682 25.3686C10.0844 25.3863 9.89894 25.3677 9.72237 25.3137C9.54581 25.2597 9.38161 25.1715 9.23916 25.054C9.09672 24.9365 8.97881 24.7921 8.89219 24.6291ZM14.8537 6.94503L9.47344 4.08566C9.31031 3.99898 9.16585 3.88103 9.04831 3.73853C8.93077 3.59603 8.84245 3.43177 8.78839 3.25514C8.67921 2.89841 8.71621 2.51292 8.89125 2.18347C9.06629 1.85402 9.36504 1.6076 9.72177 1.49842C10.0785 1.38924 10.464 1.42624 10.7934 1.60128L16.1747 4.46253C16.497 4.64143 16.7362 4.93975 16.8408 5.29327C16.9453 5.64679 16.9069 6.02722 16.7337 6.35267C16.5605 6.67812 16.2665 6.92255 15.9149 7.03334C15.5633 7.14413 15.1822 7.11242 14.8537 6.94503ZM21.5625 54.6563H7.5C7.12704 54.6563 6.76935 54.5081 6.50563 54.2444C6.24191 53.9807 6.09375 53.623 6.09375 53.25C6.09375 52.8771 6.24191 52.5194 6.50563 52.2557C6.76935 51.9919 7.12704 51.8438 7.5 51.8438H21.5625C21.9355 51.8438 22.2931 51.9919 22.5569 52.2557C22.8206 52.5194 22.9688 52.8771 22.9688 53.25C22.9688 53.623 22.8206 53.9807 22.5569 54.2444C22.2931 54.5081 21.9355 54.6563 21.5625 54.6563ZM21.5625 49.0313H7.5C7.12704 49.0313 6.76935 48.8831 6.50563 48.6194C6.24191 48.3557 6.09375 47.998 6.09375 47.625C6.09375 47.2521 6.24191 46.8944 6.50563 46.6307C6.76935 46.3669 7.12704 46.2188 7.5 46.2188H21.5625C21.9355 46.2188 22.2931 46.3669 22.5569 46.6307C22.8206 46.8944 22.9688 47.2521 22.9688 47.625C22.9688 47.998 22.8206 48.3557 22.5569 48.6194C22.2931 48.8831 21.9355 49.0313 21.5625 49.0313ZM21.5625 43.4063H13.125C12.752 43.4063 12.3944 43.2581 12.1306 42.9944C11.8669 42.7307 11.7188 42.373 11.7188 42C11.7188 41.6271 11.8669 41.2694 12.1306 41.0057C12.3944 40.7419 12.752 40.5938 13.125 40.5938H21.5625C21.9355 40.5938 22.2931 40.7419 22.5569 41.0057C22.8206 41.2694 22.9688 41.6271 22.9688 42C22.9688 42.373 22.8206 42.7307 22.5569 42.9944C22.2931 43.2581 21.9355 43.4063 21.5625 43.4063Z" fill="black"/>
<path d="M25.3125 60.2813H3.75C2.88006 60.2803 2.04604 59.9343 1.4309 59.3191C0.815763 58.704 0.469743 57.87 0.46875 57V38.25C0.469743 37.3801 0.815763 36.5461 1.4309 35.9309C2.04604 35.3158 2.88006 34.9698 3.75 34.9688H13.7597L18.4425 28.0257C18.6112 27.7764 18.8554 27.5878 19.1392 27.4876C19.423 27.3874 19.7314 27.3808 20.0193 27.4688C20.3071 27.5568 20.5591 27.7348 20.7383 27.9766C20.9176 28.2184 21.0145 28.5113 21.015 28.8122V34.9688H25.3125C26.1824 34.9698 27.0165 35.3158 27.6316 35.9309C28.2467 36.5461 28.5928 37.3801 28.5938 38.25V57C28.5928 57.87 28.2467 58.704 27.6316 59.3191C27.0165 59.9343 26.1824 60.2803 25.3125 60.2813ZM3.75 37.7813C3.62568 37.7813 3.50645 37.8307 3.41854 37.9186C3.33064 38.0065 3.28125 38.1257 3.28125 38.25V57C3.28125 57.1244 3.33064 57.2436 3.41854 57.3315C3.50645 57.4194 3.62568 57.4688 3.75 57.4688H25.3125C25.4368 57.4688 25.556 57.4194 25.644 57.3315C25.7319 57.2436 25.7812 57.1244 25.7812 57V38.25C25.7812 38.1257 25.7319 38.0065 25.644 37.9186C25.556 37.8307 25.4368 37.7813 25.3125 37.7813H19.6088C19.2358 37.7813 18.8781 37.6331 18.6144 37.3694C18.3507 37.1057 18.2025 36.748 18.2025 36.375V33.4116L15.6731 37.1616C15.5444 37.3523 15.3708 37.5085 15.1676 37.6165C14.9645 37.7246 14.7379 37.7811 14.5078 37.7813H3.75ZM52.5 54.6563H38.4375C38.0645 54.6563 37.7069 54.5081 37.4431 54.2444C37.1794 53.9807 37.0312 53.623 37.0312 53.25C37.0312 52.8771 37.1794 52.5194 37.4431 52.2557C37.7069 51.992 38.0645 51.8438 38.4375 51.8438H52.5C52.873 51.8438 53.2306 51.992 53.4944 52.2557C53.7581 52.5194 53.9062 52.8771 53.9062 53.25C53.9062 53.623 53.7581 53.9807 53.4944 54.2444C53.2306 54.5081 52.873 54.6563 52.5 54.6563ZM52.5 49.0313H38.4375C38.0645 49.0313 37.7069 48.8831 37.4431 48.6194C37.1794 48.3557 37.0312 47.998 37.0312 47.625C37.0312 47.2521 37.1794 46.8944 37.4431 46.6307C37.7069 46.367 38.0645 46.2188 38.4375 46.2188H52.5C52.873 46.2188 53.2306 46.367 53.4944 46.6307C53.7581 46.8944 53.9062 47.2521 53.9062 47.625C53.9062 47.998 53.7581 48.3557 53.4944 48.6194C53.2306 48.8831 52.873 49.0313 52.5 49.0313ZM52.5 43.4063H44.0625C43.6895 43.4063 43.3319 43.2581 43.0681 42.9944C42.8044 42.7307 42.6562 42.373 42.6562 42C42.6562 41.6271 42.8044 41.2694 43.0681 41.0057C43.3319 40.7419 43.6895 40.5938 44.0625 40.5938H52.5C52.873 40.5938 53.2306 40.7419 53.4944 41.0057C53.7581 41.2694 53.9062 41.6271 53.9062 42C53.9062 42.373 53.7581 42.7307 53.4944 42.9944C53.2306 43.2581 52.873 43.4063 52.5 43.4063Z" fill="black"/>
<path d="M56.25 60.2813H34.6875C33.8176 60.2803 32.9835 59.9343 32.3684 59.3191C31.7533 58.704 31.4072 57.87 31.4062 57V38.25C31.4072 37.3801 31.7533 36.5461 32.3684 35.9309C32.9835 35.3158 33.8176 34.9698 34.6875 34.9688H38.985V28.8122C38.9856 28.5114 39.0825 28.2187 39.2616 27.9771C39.4407 27.7354 39.6925 27.5575 39.9801 27.4694C40.2678 27.3813 40.576 27.3877 40.8597 27.4877C41.1434 27.5876 41.3877 27.7758 41.5566 28.0247L46.2403 34.9688H56.25C57.1199 34.9698 57.954 35.3158 58.5691 35.9309C59.1842 36.5461 59.5303 37.3801 59.5312 38.25V57C59.5303 57.87 59.1842 58.704 58.5691 59.3191C57.954 59.9343 57.1199 60.2803 56.25 60.2813ZM34.6875 37.7813C34.5632 37.7813 34.444 37.8307 34.356 37.9186C34.2681 38.0065 34.2188 38.1257 34.2188 38.25V57C34.2188 57.1244 34.2681 57.2436 34.356 57.3315C34.444 57.4194 34.5632 57.4688 34.6875 57.4688H56.25C56.3743 57.4688 56.4935 57.4194 56.5815 57.3315C56.6694 57.2436 56.7188 57.1244 56.7188 57V38.25C56.7188 38.1257 56.6694 38.0065 56.5815 37.9186C56.4935 37.8307 56.3743 37.7813 56.25 37.7813H45.4922C45.2621 37.7813 45.0354 37.7248 44.8323 37.6168C44.6291 37.5087 44.4555 37.3524 44.3269 37.1616L41.7975 33.4116V36.375C41.7975 36.748 41.6493 37.1057 41.3856 37.3694C41.1219 37.6331 40.7642 37.7813 40.3912 37.7813H34.6875ZM52.5009 14.8125H46.4072C46.0342 14.8125 45.6765 14.6644 45.4128 14.4007C45.1491 14.1369 45.0009 13.7792 45.0009 13.4063C45.0009 13.0333 45.1491 12.6756 45.4128 12.4119C45.6765 12.1482 46.0342 12 46.4072 12H52.5009C52.8739 12 53.2316 12.1482 53.4953 12.4119C53.759 12.6756 53.9072 13.0333 53.9072 13.4063C53.9072 13.7792 53.759 14.1369 53.4953 14.4007C53.2316 14.6644 52.8739 14.8125 52.5009 14.8125ZM49.2066 25.2103L43.8263 22.35C43.6584 22.2661 43.5091 22.1495 43.3871 22.0069C43.265 21.8644 43.1727 21.6989 43.1156 21.5202C43.0585 21.3415 43.0378 21.1531 43.0546 20.9662C43.0714 20.7794 43.1255 20.5977 43.2136 20.4321C43.3016 20.2664 43.422 20.12 43.5675 20.0016C43.713 19.8831 43.8808 19.795 44.0609 19.7424C44.241 19.6898 44.4298 19.6738 44.6162 19.6953C44.8026 19.7168 44.9828 19.7753 45.1462 19.8675L50.5275 22.7269C50.8569 22.9021 51.1033 23.2009 51.2124 23.5578C51.3215 23.9146 51.2844 24.3001 51.1092 24.6296C50.9341 24.959 50.6352 25.2054 50.2784 25.3145C49.9216 25.4236 49.536 25.3855 49.2066 25.2103ZM43.245 6.36378C43.0701 6.03456 43.033 5.64935 43.142 5.29283C43.251 4.93631 43.4971 4.63766 43.8263 4.46253L49.2075 1.60222C49.5356 1.43814 49.9149 1.40879 50.2644 1.52043C50.6138 1.63207 50.9058 1.87586 51.0781 2.19978C51.2503 2.5237 51.2891 2.90211 51.1863 3.25427C51.0834 3.60642 50.847 3.90443 50.5275 4.08472L45.1462 6.94503C44.9833 7.03177 44.8048 7.08554 44.621 7.10327C44.4372 7.121 44.2518 7.10235 44.0752 7.04837C43.8986 6.99439 43.7344 6.90614 43.592 6.78868C43.4495 6.67122 43.3316 6.52683 43.245 6.36378Z" fill="black"/>
</g>
<defs>
<clipPath id="clip0_3785_11100">
<rect width="60" height="60" fill="white" transform="translate(0 0.75)"/>
</clipPath>
</defs>
</svg>
