<svg width="60" height="61" viewBox="0 0 60 61" fill="none" xmlns="http://www.w3.org/2000/svg">
<g clip-path="url(#clip0_3785_11101)">
<path d="M47.2518 34.4313V38.4953C47.5647 38.2918 47.8322 38.0258 48.0374 37.7139C48.2427 37.402 48.3812 37.0511 48.4443 36.6831C48.5363 36.2277 48.4676 35.7544 48.2501 35.3439C48.0325 34.9333 47.6803 34.6108 47.2518 34.4313ZM44.4393 30.0972V27.5903C44.1423 27.8706 43.9398 28.2362 43.8599 28.6366C43.7686 28.9093 43.7767 29.2054 43.8827 29.4727C43.9888 29.74 44.1859 29.9612 44.4393 30.0972Z" fill="#303DBF"/>
<path d="M50.6409 20.3181L51.9778 15.6363C52.0376 15.427 52.048 15.2067 52.0081 14.9928C51.9683 14.7788 51.8794 14.577 51.7484 14.4032C51.6173 14.2295 51.4477 14.0885 51.253 13.9914C51.0582 13.8944 50.8435 13.8438 50.6259 13.8438H41.2509C41.0333 13.8438 40.8186 13.8944 40.6239 13.9914C40.4291 14.0885 40.2595 14.2295 40.1285 14.4032C39.9974 14.577 39.9085 14.7788 39.8687 14.9928C39.8289 15.2067 39.8393 15.427 39.899 15.6363L41.2359 20.3162C38.367 21.3731 35.9383 23.3665 34.3423 25.9743C32.7464 28.5821 32.0763 31.6518 32.4405 34.6874C32.8048 37.723 34.182 40.5471 36.3495 42.7033C38.5171 44.8595 41.3484 46.2218 44.3859 46.57C44.8909 46.6259 45.3985 46.6541 45.9065 46.6544C49.1001 46.6642 52.195 45.5487 54.6479 43.5037C57.1008 41.4588 58.755 38.6152 59.3201 35.472C59.8851 32.3289 59.3248 29.0871 57.7377 26.3159C56.1505 23.5447 53.6379 21.4212 50.6409 20.3181ZM51.2184 37.1491C51.0401 38.1792 50.5726 39.1375 49.8705 39.9122C49.1684 40.6868 48.2605 41.2459 47.2528 41.5244V42.4375C47.2528 42.8105 47.1046 43.1681 46.8409 43.4319C46.5772 43.6956 46.2195 43.8438 45.8465 43.8438C45.4736 43.8438 45.1159 43.6956 44.8522 43.4319C44.5884 43.1681 44.4403 42.8105 44.4403 42.4375V41.6631C43.2785 41.5495 42.1678 41.1293 41.2219 40.4453C40.9181 40.2376 40.7078 39.9191 40.6362 39.5582C40.5645 39.1972 40.6372 38.8225 40.8387 38.5146C41.0402 38.2066 41.3543 37.9899 41.7137 37.9109C42.0732 37.832 42.4492 37.897 42.7612 38.0922C43.258 38.4625 43.8314 38.7168 44.4394 38.8366V33.2959C42.195 32.26 40.5684 30.9194 41.0972 28.1163C41.2439 27.2525 41.6376 26.4497 42.2307 25.8049C42.8238 25.1601 43.5909 24.7008 44.4394 24.4825C44.49 24.3063 44.13 22.2813 45.8456 22.2813C46.2186 22.2813 46.5762 22.4294 46.84 22.6931C47.1037 22.9569 47.2519 23.3145 47.2519 23.6875V24.3869C48.189 24.5638 49.0643 24.9804 49.7925 25.5963C50.0683 25.8474 50.2332 26.1978 50.2506 26.5704C50.2681 26.9431 50.1369 27.3074 49.8858 27.5833C49.6346 27.8591 49.2842 28.024 48.9116 28.0415C48.5389 28.0589 48.1746 27.9277 47.8987 27.6766C47.7011 27.5241 47.4834 27.3995 47.2519 27.3063V31.4125C47.475 31.495 47.6972 31.5756 47.9156 31.6525C49.0398 32.0113 49.9949 32.767 50.6027 33.7784C51.2105 34.7899 51.4294 35.988 51.2184 37.1491Z" fill="#303DBF"/>
<path d="M40.3125 0.71875H4.6875C3.569 0.719991 2.49666 1.16486 1.70576 1.95576C0.914863 2.74666 0.469991 3.819 0.46875 4.9375V55.5625C0.469991 56.681 0.914863 57.7533 1.70576 58.5442C2.49666 59.3351 3.569 59.78 4.6875 59.7812H40.3125C41.431 59.78 42.5033 59.3351 43.2942 58.5442C44.0851 57.7533 44.53 56.681 44.5312 55.5625V50.6313C44.5312 50.2583 44.3831 49.9006 44.1194 49.6369C43.8556 49.3732 43.498 49.225 43.125 49.225C42.752 49.225 42.3944 49.3732 42.1306 49.6369C41.8669 49.9006 41.7188 50.2583 41.7188 50.6313V55.5625C41.7183 55.9353 41.5699 56.2927 41.3063 56.5563C41.0427 56.8199 40.6853 56.9683 40.3125 56.9688H4.6875C4.31469 56.9683 3.95729 56.8199 3.69368 56.5563C3.43006 56.2927 3.28175 55.9353 3.28125 55.5625V4.9375C3.28175 4.56469 3.43006 4.20729 3.69368 3.94368C3.95729 3.68006 4.31469 3.53175 4.6875 3.53125H13.5938V4.9375C13.595 6.056 14.0399 7.12834 14.8308 7.91924C15.6217 8.71014 16.694 9.15501 17.8125 9.15625H27.1875C28.306 9.15501 29.3783 8.71014 30.1692 7.91924C30.9601 7.12834 31.405 6.056 31.4062 4.9375V3.53125H40.3125C40.6853 3.53175 41.0427 3.68006 41.3063 3.94368C41.5699 4.20729 41.7183 4.56469 41.7188 4.9375V9.625C41.7188 9.99796 41.8669 10.3556 42.1306 10.6194C42.3944 10.8831 42.752 11.0312 43.125 11.0312C43.498 11.0312 43.8556 10.8831 44.1194 10.6194C44.3831 10.3556 44.5312 9.99796 44.5312 9.625V4.9375C44.53 3.819 44.0851 2.74666 43.2942 1.95576C42.5033 1.16486 41.431 0.719991 40.3125 0.71875ZM28.5938 4.9375C28.5933 5.31031 28.4449 5.66771 28.1813 5.93132C27.9177 6.19494 27.5603 6.34325 27.1875 6.34375H17.8125C17.4397 6.34325 17.0823 6.19494 16.8187 5.93132C16.5551 5.66771 16.4067 5.31031 16.4062 4.9375V3.53125H28.5938V4.9375Z" fill="black"/>
<path d="M16.4062 15.25C16.4062 14.877 16.2581 14.5194 15.9944 14.2556C15.7306 13.9919 15.373 13.8438 15 13.8438H7.5C7.12704 13.8438 6.76935 13.9919 6.50563 14.2556C6.24191 14.5194 6.09375 14.877 6.09375 15.25V22.75C6.09375 23.123 6.24191 23.4806 6.50563 23.7444C6.76935 24.0081 7.12704 24.1562 7.5 24.1562H15C15.373 24.1562 15.7306 24.0081 15.9944 23.7444C16.2581 23.4806 16.4062 23.123 16.4062 22.75V15.25ZM13.5938 21.3438H8.90625V16.6562H13.5938V21.3438ZM35.625 14.7812H20.625C20.252 14.7813 19.8944 14.9294 19.6306 15.1931C19.3669 15.4569 19.2188 15.8145 19.2188 16.1875C19.2188 16.5605 19.3669 16.9181 19.6306 17.1819C19.8944 17.4456 20.252 17.5938 20.625 17.5938H35.625C35.998 17.5938 36.3556 17.4456 36.6194 17.1819C36.8831 16.9181 37.0312 16.5605 37.0312 16.1875C37.0312 15.8145 36.8831 15.4569 36.6194 15.1931C36.3556 14.9294 35.998 14.7813 35.625 14.7812ZM20.625 23.2188H31.875C32.248 23.2188 32.6056 23.0706 32.8694 22.8069C33.1331 22.5431 33.2812 22.1855 33.2812 21.8125C33.2812 21.4395 33.1331 21.0819 32.8694 20.8181C32.6056 20.5544 32.248 20.4062 31.875 20.4062H20.625C20.252 20.4062 19.8944 20.5544 19.6306 20.8181C19.3669 21.0819 19.2188 21.4395 19.2188 21.8125C19.2188 22.1855 19.3669 22.5431 19.6306 22.8069C19.8944 23.0706 20.252 23.2188 20.625 23.2188ZM16.4062 28.375C16.4062 28.002 16.2581 27.6444 15.9944 27.3806C15.7306 27.1169 15.373 26.9688 15 26.9688H7.5C7.12704 26.9688 6.76935 27.1169 6.50563 27.3806C6.24191 27.6444 6.09375 28.002 6.09375 28.375V35.875C6.09375 36.248 6.24191 36.6056 6.50563 36.8694C6.76935 37.1331 7.12704 37.2812 7.5 37.2812H15C15.373 37.2812 15.7306 37.1331 15.9944 36.8694C16.2581 36.6056 16.4062 36.248 16.4062 35.875V28.375ZM13.5938 34.4688H8.90625V29.7812H13.5938V34.4688ZM20.625 30.7188H28.125C28.498 30.7188 28.8556 30.5706 29.1194 30.3069C29.3831 30.0431 29.5312 29.6855 29.5312 29.3125C29.5312 28.9395 29.3831 28.5819 29.1194 28.3181C28.8556 28.0544 28.498 27.9062 28.125 27.9062H20.625C20.252 27.9062 19.8944 28.0544 19.6306 28.3181C19.3669 28.5819 19.2188 28.9395 19.2188 29.3125C19.2188 29.6855 19.3669 30.0431 19.6306 30.3069C19.8944 30.5706 20.252 30.7188 20.625 30.7188ZM20.625 36.3438H28.125C28.498 36.3438 28.8556 36.1956 29.1194 35.9319C29.3831 35.6681 29.5312 35.3105 29.5312 34.9375C29.5312 34.5645 29.3831 34.2069 29.1194 33.9431C28.8556 33.6794 28.498 33.5312 28.125 33.5312H20.625C20.252 33.5312 19.8944 33.6794 19.6306 33.9431C19.3669 34.2069 19.2188 34.5645 19.2188 34.9375C19.2188 35.3105 19.3669 35.6681 19.6306 35.9319C19.8944 36.1956 20.252 36.3438 20.625 36.3438ZM15 40.0938H7.5C7.12704 40.0938 6.76935 40.2419 6.50563 40.5056C6.24191 40.7694 6.09375 41.127 6.09375 41.5V49C6.09375 49.373 6.24191 49.7306 6.50563 49.9944C6.76935 50.2581 7.12704 50.4062 7.5 50.4062H15C15.373 50.4062 15.7306 50.2581 15.9944 49.9944C16.2581 49.7306 16.4062 49.373 16.4062 49V41.5C16.4062 41.127 16.2581 40.7694 15.9944 40.5056C15.7306 40.2419 15.373 40.0938 15 40.0938ZM13.5938 47.5938H8.90625V42.9062H13.5938V47.5938ZM20.625 43.8438H30.9375C31.3105 43.8438 31.6681 43.6956 31.9319 43.4319C32.1956 43.1681 32.3438 42.8105 32.3438 42.4375C32.3438 42.0645 32.1956 41.7069 31.9319 41.4431C31.6681 41.1794 31.3105 41.0312 30.9375 41.0312H20.625C20.252 41.0312 19.8944 41.1794 19.6306 41.4431C19.3669 41.7069 19.2188 42.0645 19.2188 42.4375C19.2188 42.8105 19.3669 43.1681 19.6306 43.4319C19.8944 43.6956 20.252 43.8438 20.625 43.8438ZM20.625 49.4688H35.625C35.998 49.4688 36.3556 49.3206 36.6194 49.0569C36.8831 48.7931 37.0312 48.4355 37.0312 48.0625C37.0312 47.6895 36.8831 47.3319 36.6194 47.0681C36.3556 46.8044 35.998 46.6562 35.625 46.6562H20.625C20.252 46.6562 19.8944 46.8044 19.6306 47.0681C19.3669 47.3319 19.2188 47.6895 19.2188 48.0625C19.2188 48.4355 19.3669 48.7931 19.6306 49.0569C19.8944 49.3206 20.252 49.4688 20.625 49.4688Z" fill="black"/>
</g>
<defs>
<clipPath id="clip0_3785_11101">
<rect width="60" height="60" fill="white" transform="translate(0 0.25)"/>
</clipPath>
</defs>
</svg>
