<svg width="60" height="61" viewBox="0 0 60 61" fill="none" xmlns="http://www.w3.org/2000/svg">
<g clip-path="url(#clip0_3785_11102)">
<path d="M38.3049 0.718757C36.1046 0.716228 33.9564 1.38772 32.1492 2.64287C30.3421 3.89802 28.9628 5.6766 28.1969 7.73926C27.431 9.80193 27.3153 12.0497 27.8654 14.1801C28.4155 16.3105 29.6049 18.2213 31.2736 19.6553V28.375C31.2736 28.6148 31.3348 28.8506 31.4515 29.06C31.5682 29.2694 31.7365 29.4455 31.9405 29.5716C32.1444 29.6977 32.3772 29.7695 32.6167 29.7803C32.8562 29.791 33.0945 29.7404 33.3089 29.6331L38.3058 27.1347L43.3008 29.6331C43.5153 29.7401 43.7535 29.7905 43.9929 29.7796C44.2323 29.7687 44.465 29.6969 44.6688 29.5709C44.8727 29.4449 45.041 29.2689 45.1578 29.0596C45.2746 28.8503 45.3359 28.6147 45.3361 28.375V19.6553C47.0049 18.2213 48.1943 16.3105 48.7444 14.1801C49.2944 12.0497 49.1787 9.80193 48.4129 7.73926C47.647 5.6766 46.2677 3.89802 44.4605 2.64287C42.6534 1.38772 40.5051 0.716228 38.3049 0.718757ZM42.5236 26.0997L38.9339 24.3044C38.7386 24.2068 38.5232 24.1561 38.3049 24.1561C38.0865 24.1561 37.8712 24.2068 37.6758 24.3044L34.0861 26.0997V21.4188C35.42 21.987 36.855 22.2799 38.3049 22.2799C39.7548 22.2799 41.1897 21.987 42.5236 21.4188V26.0997ZM44.7174 8.12501L39.0924 15.625C38.9793 15.7758 38.8371 15.9024 38.6742 15.9971C38.5113 16.0919 38.331 16.1529 38.144 16.1766C37.957 16.2003 37.7672 16.1862 37.5858 16.1351C37.4044 16.084 37.2351 15.9969 37.088 15.8791L32.4005 12.1291C32.1172 11.8936 31.9377 11.5563 31.9005 11.1898C31.8632 10.8233 31.9713 10.4568 32.2015 10.1691C32.4317 9.88148 32.7655 9.69564 33.1313 9.65157C33.497 9.6075 33.8655 9.70871 34.1574 9.93345L37.7124 12.7769L42.4664 6.43751C42.6902 6.13914 43.0234 5.94189 43.3926 5.88914C43.7618 5.8364 44.1368 5.93248 44.4352 6.15626C44.7336 6.38003 44.9308 6.71317 44.9836 7.08238C45.0363 7.4516 44.9412 7.82664 44.7174 8.12501Z" fill="#303DBF"/>
<path d="M55.3125 8.21875H53.1769C52.8039 8.21875 52.4462 8.36691 52.1825 8.63063C51.9188 8.89435 51.7706 9.25204 51.7706 9.625C51.7706 9.99796 51.9188 10.3556 52.1825 10.6194C52.4462 10.8831 52.8039 11.0312 53.1769 11.0312H55.3125C55.6853 11.0317 56.0427 11.1801 56.3063 11.4437C56.5699 11.7073 56.7183 12.0647 56.7188 12.4375V15.7188H52.3697C51.9967 15.7188 51.639 15.8669 51.3753 16.1306C51.1116 16.3944 50.9634 16.752 50.9634 17.125C50.9634 17.498 51.1116 17.8556 51.3753 18.1194C51.639 18.3831 51.9967 18.5312 52.3697 18.5312H56.7188V55.5625C56.7183 55.9353 56.5699 56.2927 56.3063 56.5563C56.0427 56.8199 55.6853 56.9683 55.3125 56.9688H4.6875C4.31469 56.9683 3.95729 56.8199 3.69368 56.5563C3.43006 56.2927 3.28175 55.9353 3.28125 55.5625V18.5312H24.2447C24.6176 18.5312 24.9753 18.3831 25.2391 18.1194C25.5028 17.8556 25.6509 17.498 25.6509 17.125C25.6509 16.752 25.5028 16.3944 25.2391 16.1306C24.9753 15.8669 24.6176 15.7188 24.2447 15.7188H3.28125V12.4375C3.28175 12.0647 3.43006 11.7073 3.69368 11.4437C3.95729 11.1801 4.31469 11.0317 4.6875 11.0312H23.4375C23.8105 11.0312 24.1681 10.8831 24.4319 10.6194C24.6956 10.3556 24.8438 9.99796 24.8438 9.625C24.8438 9.25204 24.6956 8.89435 24.4319 8.63063C24.1681 8.36691 23.8105 8.21875 23.4375 8.21875H4.6875C3.569 8.21999 2.49666 8.66486 1.70576 9.45576C0.914863 10.2467 0.469991 11.319 0.46875 12.4375V55.5625C0.469991 56.681 0.914863 57.7533 1.70576 58.5442C2.49666 59.3351 3.569 59.78 4.6875 59.7812H55.3125C56.431 59.78 57.5033 59.3351 58.2942 58.5442C59.0851 57.7533 59.53 56.681 59.5312 55.5625V12.4375C59.53 11.319 59.0851 10.2467 58.2942 9.45576C57.5033 8.66486 56.431 8.21999 55.3125 8.21875Z" fill="black"/>
<path d="M26.25 26.9688H9.375C9.00204 26.9688 8.64435 27.1169 8.38063 27.3806C8.11691 27.6444 7.96875 28.002 7.96875 28.375C7.96875 28.748 8.11691 29.1056 8.38063 29.3694C8.64435 29.6331 9.00204 29.7812 9.375 29.7812H26.25C26.623 29.7812 26.9806 29.6331 27.2444 29.3694C27.5081 29.1056 27.6562 28.748 27.6562 28.375C27.6562 28.002 27.5081 27.6444 27.2444 27.3806C26.9806 27.1169 26.623 26.9688 26.25 26.9688ZM52.0312 39.625C52.0312 39.252 51.8831 38.8944 51.6194 38.6306C51.3556 38.3669 50.998 38.2188 50.625 38.2188H9.375C9.00204 38.2188 8.64435 38.3669 8.38063 38.6306C8.11691 38.8944 7.96875 39.252 7.96875 39.625C7.96875 39.998 8.11691 40.3556 8.38063 40.6194C8.64435 40.8831 9.00204 41.0312 9.375 41.0312H50.625C50.998 41.0312 51.3556 40.8831 51.6194 40.6194C51.8831 40.3556 52.0312 39.998 52.0312 39.625ZM50.625 32.5938H9.375C9.00204 32.5938 8.64435 32.7419 8.38063 33.0056C8.11691 33.2694 7.96875 33.627 7.96875 34C7.96875 34.373 8.11691 34.7306 8.38063 34.9944C8.64435 35.2581 9.00204 35.4062 9.375 35.4062H50.625C50.998 35.4062 51.3556 35.2581 51.6194 34.9944C51.8831 34.7306 52.0312 34.373 52.0312 34C52.0312 33.627 51.8831 33.2694 51.6194 33.0056C51.3556 32.7419 50.998 32.5938 50.625 32.5938ZM13.125 47.5938C12.752 47.5938 12.3944 47.7419 12.1306 48.0056C11.8669 48.2694 11.7188 48.627 11.7188 49C11.7188 49.373 11.8669 49.7306 12.1306 49.9944C12.3944 50.2581 12.752 50.4062 13.125 50.4062H22.5C22.873 50.4062 23.2306 50.2581 23.4944 49.9944C23.7581 49.7306 23.9062 49.373 23.9062 49C23.9062 48.627 23.7581 48.2694 23.4944 48.0056C23.2306 47.7419 22.873 47.5938 22.5 47.5938H13.125ZM37.5 47.5938C37.127 47.5938 36.7694 47.7419 36.5056 48.0056C36.2419 48.2694 36.0938 48.627 36.0938 49C36.0938 49.373 36.2419 49.7306 36.5056 49.9944C36.7694 50.2581 37.127 50.4062 37.5 50.4062H46.875C47.248 50.4062 47.6056 50.2581 47.8694 49.9944C48.1331 49.7306 48.2812 49.373 48.2812 49C48.2812 48.627 48.1331 48.2694 47.8694 48.0056C47.6056 47.7419 47.248 47.5938 46.875 47.5938H37.5Z" fill="black"/>
</g>
<defs>
<clipPath id="clip0_3785_11102">
<rect width="60" height="60" fill="white" transform="translate(0 0.25)"/>
</clipPath>
</defs>
</svg>
