<svg width="60" height="61" viewBox="0 0 60 61" fill="none" xmlns="http://www.w3.org/2000/svg">
<g clip-path="url(#clip0_3785_11099)">
<path d="M45.9375 33.0938C43.2489 33.0938 40.6207 33.891 38.3852 35.3847C36.1497 36.8784 34.4074 39.0015 33.3785 41.4854C32.3496 43.9693 32.0804 46.7026 32.605 49.3395C33.1295 51.9764 34.4242 54.3986 36.3253 56.2997C38.2264 58.2009 40.6486 59.4955 43.2855 60.02C45.9224 60.5446 48.6557 60.2754 51.1396 59.2465C53.6235 58.2176 55.7466 56.4753 57.2403 54.2398C58.734 52.0043 59.5313 49.3761 59.5313 46.6875C59.527 43.0835 58.0935 39.6283 55.5451 37.0799C52.9967 34.5315 49.5415 33.098 45.9375 33.0938ZM53.4938 54.2438C53.2301 54.5071 52.8727 54.655 52.5 54.655C52.1273 54.655 51.7699 54.5071 51.5063 54.2438L44.9438 47.6813C44.68 47.4178 44.5316 47.0603 44.5313 46.6875V38.25C44.5313 37.877 44.6794 37.5194 44.9431 37.2556C45.2069 36.9919 45.5645 36.8438 45.9375 36.8438C46.3105 36.8438 46.6682 36.9919 46.9319 37.2556C47.1956 37.5194 47.3438 37.877 47.3438 38.25V46.1053L53.4938 52.2553C53.6244 52.3859 53.7281 52.541 53.7988 52.7116C53.8696 52.8823 53.906 53.0653 53.906 53.25C53.906 53.4347 53.8696 53.6177 53.7988 53.7884C53.7281 53.959 53.6244 54.1132 53.4938 54.2438Z" fill="#303DBF"/>
<path d="M55.3125 1.21875H4.6875C3.569 1.21999 2.49666 1.66486 1.70576 2.45576C0.914863 3.24666 0.469991 4.319 0.46875 5.4375V56.0625C0.469991 57.181 0.914863 58.2533 1.70576 59.0442C2.49666 59.8351 3.569 60.28 4.6875 60.2812H32.9831C33.3561 60.2812 33.7138 60.1331 33.9775 59.8694C34.2412 59.6056 34.3894 59.248 34.3894 58.875C34.3894 58.502 34.2412 58.1444 33.9775 57.8806C33.7138 57.6169 33.3561 57.4688 32.9831 57.4688H20.1562V49.5C20.1555 48.3703 19.8822 47.2574 19.3596 46.2558C18.837 45.2542 18.0806 44.3935 17.1544 43.7466C17.8457 43.1376 18.3905 42.3803 18.7481 41.5312H29.0625C29.4355 41.5312 29.7931 41.3831 30.0569 41.1194C30.3206 40.8556 30.4688 40.498 30.4688 40.125C30.4688 39.752 30.3206 39.3944 30.0569 39.1306C29.7931 38.8669 29.4355 38.7188 29.0625 38.7188H19.1953C19.081 37.187 18.3919 35.7551 17.2661 34.7101C16.1402 33.6652 14.661 33.0845 13.125 33.0845C11.589 33.0845 10.1098 33.6652 8.98394 34.7101C7.85813 35.7551 7.16898 37.187 7.05469 38.7188H3.28125V29.3438H56.7188V33.7331C56.7187 34.1061 56.8669 34.4638 57.1306 34.7275C57.3944 34.9912 57.752 35.1394 58.125 35.1394C58.498 35.1394 58.8556 34.9912 59.1194 34.7275C59.3831 34.4638 59.5312 34.1061 59.5312 33.7331V5.4375C59.53 4.319 59.0851 3.24666 58.2942 2.45576C57.5033 1.66486 56.431 1.21999 55.3125 1.21875ZM17.3438 49.5V57.4688H8.90625V49.5C8.90625 48.3811 9.35072 47.3081 10.1419 46.5169C10.9331 45.7257 12.0061 45.2812 13.125 45.2812C14.2439 45.2812 15.3169 45.7257 16.1081 46.5169C16.8993 47.3081 17.3437 48.3811 17.3438 49.5ZM13.125 35.9062C13.774 35.9062 14.4084 36.0987 14.948 36.4592C15.4876 36.8198 15.9081 37.3322 16.1565 37.9318C16.4048 38.5314 16.4698 39.1911 16.3432 39.8276C16.2166 40.4641 15.9041 41.0488 15.4452 41.5077C14.9863 41.9666 14.4016 42.2791 13.7651 42.4057C13.1286 42.5323 12.4689 42.4673 11.8693 42.219C11.2698 41.9706 10.7573 41.5501 10.3967 41.0105C10.0362 40.4709 9.84375 39.8365 9.84375 39.1875C9.84474 38.3176 10.1908 37.4835 10.8059 36.8684C11.421 36.2533 12.2551 35.9072 13.125 35.9062ZM7.50187 41.5312C7.85944 42.3803 8.40426 43.1376 9.09562 43.7466C8.16944 44.3935 7.41297 45.2542 6.89038 46.2558C6.3678 47.2574 6.09453 48.3703 6.09375 49.5V57.4688H4.6875C4.31469 57.4683 3.95729 57.3199 3.69368 57.0563C3.43006 56.7927 3.28175 56.4353 3.28125 56.0625V41.5312H7.50187ZM13.125 19.0312C14.2435 19.0325 15.3158 19.4774 16.1067 20.2683C16.8976 21.0592 17.3425 22.1315 17.3438 23.25V26.5312H8.90625V23.25C8.90749 22.1315 9.35236 21.0592 10.1433 20.2683C10.9342 19.4774 12.0065 19.0325 13.125 19.0312ZM9.84375 12.9375C9.84375 12.2885 10.0362 11.6541 10.3967 11.1145C10.7573 10.5749 11.2698 10.1544 11.8693 9.90602C12.4689 9.65767 13.1286 9.59269 13.7651 9.7193C14.4016 9.84591 14.9863 10.1584 15.4452 10.6173C15.9041 11.0762 16.2166 11.6609 16.3432 12.2974C16.4698 12.9339 16.4048 13.5936 16.1565 14.1932C15.9081 14.7927 15.4876 15.3052 14.948 15.6658C14.4084 16.0263 13.774 16.2188 13.125 16.2188C12.2551 16.2178 11.421 15.8717 10.8059 15.2566C10.1908 14.6415 9.84474 13.8074 9.84375 12.9375ZM30 19.0312C31.1185 19.0325 32.1908 19.4774 32.9817 20.2683C33.7726 21.0592 34.2175 22.1315 34.2188 23.25V26.5312H25.7812V23.25C25.7825 22.1315 26.2274 21.0592 27.0183 20.2683C27.8092 19.4774 28.8815 19.0325 30 19.0312ZM26.7188 12.9375C26.7188 12.2885 26.9112 11.6541 27.2717 11.1145C27.6323 10.5749 28.1448 10.1544 28.7443 9.90602C29.3439 9.65767 30.0036 9.59269 30.6401 9.7193C31.2766 9.84591 31.8613 10.1584 32.3202 10.6173C32.7791 11.0762 33.0916 11.6609 33.2182 12.2974C33.3448 12.9339 33.2798 13.5936 33.0315 14.1932C32.7831 14.7927 32.3626 15.3052 31.823 15.6658C31.2834 16.0263 30.649 16.2188 30 16.2188C29.1301 16.2178 28.296 15.8717 27.6809 15.2566C27.0658 14.6415 26.7197 13.8074 26.7188 12.9375ZM46.875 19.0312C47.9935 19.0325 49.0658 19.4774 49.8567 20.2683C50.6476 21.0592 51.0925 22.1315 51.0938 23.25V26.5312H42.6562V23.25C42.6575 22.1315 43.1024 21.0592 43.8933 20.2683C44.6842 19.4774 45.7565 19.0325 46.875 19.0312ZM43.5938 12.9375C43.5938 12.2885 43.7862 11.6541 44.1467 11.1145C44.5073 10.5749 45.0197 10.1544 45.6193 9.90602C46.2189 9.65767 46.8786 9.59269 47.5151 9.7193C48.1516 9.84591 48.7363 10.1584 49.1952 10.6173C49.6541 11.0762 49.9666 11.6609 50.0932 12.2974C50.2198 12.9339 50.1548 13.5936 49.9065 14.1932C49.6581 14.7927 49.2376 15.3052 48.698 15.6658C48.1584 16.0263 47.524 16.2188 46.875 16.2188C46.0051 16.2178 45.171 15.8717 44.5559 15.2566C43.9408 14.6415 43.5947 13.8074 43.5938 12.9375ZM53.9062 26.5312V23.25C53.9055 22.1203 53.6322 21.0074 53.1096 20.0058C52.587 19.0042 51.8306 18.1435 50.9044 17.4966C51.833 16.678 52.4904 15.596 52.7889 14.3947C53.0874 13.1933 53.013 11.9295 52.5755 10.7715C52.138 9.61343 51.3581 8.61612 50.3398 7.91227C49.3215 7.20841 48.1129 6.83139 46.875 6.83139C45.6371 6.83139 44.4285 7.20841 43.4102 7.91227C42.3919 8.61612 41.612 9.61343 41.1745 10.7715C40.737 11.9295 40.6626 13.1933 40.9611 14.3947C41.2596 15.596 41.917 16.678 42.8456 17.4966C41.9194 18.1435 41.163 19.0042 40.6404 20.0058C40.1178 21.0074 39.8445 22.1203 39.8438 23.25V26.5312H37.0312V23.25C37.0305 22.1203 36.7572 21.0074 36.2346 20.0058C35.712 19.0042 34.9556 18.1435 34.0294 17.4966C34.958 16.678 35.6154 15.596 35.9139 14.3947C36.2124 13.1933 36.138 11.9295 35.7005 10.7715C35.263 9.61343 34.4831 8.61612 33.4648 7.91227C32.4465 7.20841 31.2379 6.83139 30 6.83139C28.7621 6.83139 27.5535 7.20841 26.5352 7.91227C25.5169 8.61612 24.737 9.61343 24.2995 10.7715C23.862 11.9295 23.7876 13.1933 24.0861 14.3947C24.3846 15.596 25.042 16.678 25.9706 17.4966C25.0444 18.1435 24.288 19.0042 23.7654 20.0058C23.2428 21.0074 22.9695 22.1203 22.9688 23.25V26.5312H20.1562V23.25C20.1555 22.1203 19.8822 21.0074 19.3596 20.0058C18.837 19.0042 18.0806 18.1435 17.1544 17.4966C18.083 16.678 18.7404 15.596 19.0389 14.3947C19.3374 13.1933 19.263 11.9295 18.8255 10.7715C18.388 9.61343 17.6081 8.61612 16.5898 7.91227C15.5715 7.20841 14.3629 6.83139 13.125 6.83139C11.8871 6.83139 10.6785 7.20841 9.66019 7.91227C8.64185 8.61612 7.86203 9.61343 7.42452 10.7715C6.98701 11.9295 6.91257 13.1933 7.2111 14.3947C7.50962 15.596 8.16696 16.678 9.09562 17.4966C8.16944 18.1435 7.41297 19.0042 6.89038 20.0058C6.3678 21.0074 6.09453 22.1203 6.09375 23.25V26.5312H3.28125V5.4375C3.28175 5.06469 3.43006 4.70729 3.69368 4.44368C3.95729 4.18006 4.31469 4.03175 4.6875 4.03125H55.3125C55.6853 4.03175 56.0427 4.18006 56.3063 4.44368C56.5699 4.70729 56.7183 5.06469 56.7188 5.4375V26.5312H53.9062Z" fill="black"/>
</g>
<defs>
<clipPath id="clip0_3785_11099">
<rect width="60" height="60" fill="white" transform="translate(0 0.75)"/>
</clipPath>
</defs>
</svg>
