<svg width="60" height="61" viewBox="0 0 60 61" fill="none" xmlns="http://www.w3.org/2000/svg">
<g clip-path="url(#clip0_3785_11098)">
<path d="M30 34.2994C31.8122 34.2994 33.2812 32.8303 33.2812 31.0181C33.2812 29.2059 31.8122 27.7369 30 27.7369C28.1878 27.7369 26.7188 29.2059 26.7188 31.0181C26.7188 32.8303 28.1878 34.2994 30 34.2994Z" fill="#303DBF"/>
<path d="M25.7531 35.3794C24.8835 34.5343 24.2858 33.4489 24.0364 32.2621C23.7871 31.0754 23.8975 29.8413 24.3536 28.7176C24.8096 27.594 25.5905 26.632 26.5964 25.9547C27.6023 25.2773 28.7873 24.9155 30 24.9155C31.2127 24.9155 32.3977 25.2773 33.4036 25.9547C34.4095 26.632 35.1904 27.594 35.6464 28.7176C36.1025 29.8413 36.2129 31.0754 35.9636 32.2621C35.7142 33.4489 35.1165 34.5343 34.2469 35.3794C35.6771 36.1626 36.8667 37.321 37.6875 38.73C38.9519 36.2483 39.6862 33.5308 39.8438 30.75C39.773 28.1863 38.7048 25.7514 36.8665 23.9631C35.0281 22.1748 32.5647 21.1743 30 21.1743C27.4353 21.1743 24.9719 22.1748 23.1335 23.9631C21.2952 25.7514 20.227 28.1863 20.1562 30.75C20.3138 33.5308 21.0481 36.2483 22.3125 38.73C23.1333 37.321 24.3229 36.1626 25.7531 35.3794Z" fill="#303DBF"/>
<path d="M29.9969 37.1119C28.5815 37.1141 27.2109 37.6082 26.1198 38.5097C25.0287 39.4112 24.2848 40.6639 24.0156 42.0534C25.4813 44.6087 27.1021 47.0717 28.8691 49.4288C29.0002 49.6041 29.1704 49.7465 29.3662 49.8446C29.5619 49.9427 29.7779 49.9938 29.9969 49.9938C30.2158 49.9938 30.4318 49.9427 30.6276 49.8446C30.8234 49.7465 30.9936 49.6041 31.1247 49.4288C32.8916 47.0717 34.5124 44.6087 35.9781 42.0534C35.7087 40.6641 34.9648 39.4116 33.8737 38.5103C32.7826 37.609 31.4121 37.114 29.9969 37.1119Z" fill="#303DBF"/>
<path d="M30 14.6119C25.6859 14.5814 21.5358 16.2633 18.4601 19.2887C15.3844 22.3141 13.6344 26.4359 13.5938 30.75C13.5938 43.215 28.3434 59.1619 28.9716 59.8341C29.1031 59.9752 29.2624 60.0877 29.4393 60.1646C29.6162 60.2415 29.8071 60.2812 30 60.2812C30.1929 60.2812 30.3838 60.2415 30.5607 60.1646C30.7376 60.0877 30.8969 59.9752 31.0284 59.8341C31.6566 59.1619 46.4062 43.215 46.4062 30.75C46.3656 26.4359 44.6156 22.3141 41.5399 19.2887C38.4642 16.2633 34.3141 14.5814 30 14.6119ZM30 56.76C26.67 52.9237 16.4062 40.3228 16.4062 30.75C16.4786 27.1926 17.9426 23.8053 20.4841 21.315C23.0255 18.8248 26.4419 17.43 30 17.43C33.5581 17.43 36.9745 18.8248 39.5159 21.315C42.0574 23.8053 43.5214 27.1926 43.5938 30.75C43.5938 40.3134 33.3281 52.9228 30 56.76ZM57.1312 41.4656L53.0128 45.5831L48.8306 41.4019C48.7009 41.2676 48.5457 41.1604 48.3742 41.0867C48.2026 41.013 48.0181 40.9742 47.8313 40.9726C47.6446 40.971 47.4594 41.0066 47.2866 41.0773C47.1138 41.148 46.9568 41.2524 46.8248 41.3844C46.6927 41.5165 46.5883 41.6735 46.5176 41.8463C46.4469 42.0191 46.4113 42.2043 46.4129 42.391C46.4146 42.5778 46.4533 42.7623 46.527 42.9338C46.6007 43.1054 46.7079 43.2606 46.8422 43.3903L52.0181 48.5653C52.2818 48.8289 52.6395 48.977 53.0123 48.977C53.3852 48.977 53.7429 48.8289 54.0066 48.5653L56.7188 45.8541V57C56.7185 57.1242 56.669 57.2433 56.5812 57.3312C56.4933 57.419 56.3742 57.4685 56.25 57.4688H45.1041L47.8163 54.7566C48.0796 54.4929 48.2275 54.1355 48.2275 53.7628C48.2275 53.3902 48.0796 53.0327 47.8163 52.7691L44.5069 49.4588C44.3772 49.3244 44.222 49.2173 44.0504 49.1436C43.8788 49.0699 43.6943 49.0311 43.5076 49.0295C43.3209 49.0279 43.1357 49.0634 42.9629 49.1342C42.7901 49.2049 42.633 49.3093 42.501 49.4413C42.369 49.5734 42.2646 49.7304 42.1938 49.9032C42.1231 50.076 42.0876 50.2612 42.0892 50.4479C42.0908 50.6346 42.1296 50.8192 42.2033 50.9907C42.277 51.1623 42.3841 51.3175 42.5184 51.4472L44.8341 53.7628L40.7156 57.8803C40.5193 58.0771 40.3857 58.3276 40.3316 58.6002C40.2776 58.8729 40.3054 59.1554 40.4117 59.4122C40.518 59.669 40.698 59.8886 40.9289 60.0433C41.1599 60.1979 41.4314 60.2807 41.7094 60.2812H56.25C57.1199 60.2803 57.954 59.9342 58.5691 59.3191C59.1842 58.704 59.5303 57.8699 59.5312 57V42.4594C59.5306 42.1816 59.4477 41.9103 59.2931 41.6795C59.1385 41.4488 58.919 41.269 58.6624 41.1627C58.4058 41.0565 58.1235 41.0285 57.851 41.0824C57.5785 41.1363 57.3281 41.2697 57.1312 41.4656ZM56.25 1.21875H41.7094C41.4316 1.21944 41.1603 1.30231 40.9295 1.45692C40.6988 1.61153 40.519 1.83097 40.4127 2.08759C40.3065 2.34422 40.2785 2.62655 40.3324 2.89902C40.3863 3.17149 40.5197 3.42191 40.7156 3.61875L44.8331 7.73719L40.0162 12.555C39.8781 12.6837 39.7673 12.839 39.6904 13.0115C39.6135 13.184 39.5722 13.3702 39.5689 13.559C39.5656 13.7478 39.6003 13.9354 39.671 14.1105C39.7417 14.2856 39.847 14.4447 39.9806 14.5782C40.1141 14.7117 40.2732 14.817 40.4483 14.8877C40.6234 14.9585 40.8109 14.9932 40.9997 14.9899C41.1885 14.9865 41.3748 14.9452 41.5473 14.8683C41.7198 14.7915 41.875 14.6807 42.0038 14.5425L47.8163 8.73187C48.0799 8.46816 48.228 8.11054 48.228 7.73766C48.228 7.36477 48.0799 7.00715 47.8163 6.74344L45.1031 4.03125H56.25C56.3742 4.0315 56.4933 4.08096 56.5812 4.16882C56.669 4.25667 56.7185 4.37576 56.7188 4.5V15.6459L54.0066 12.9338C53.7429 12.6704 53.3855 12.5225 53.0128 12.5225C52.6402 12.5225 52.2827 12.6704 52.0191 12.9338L46.2872 18.6647C46.1529 18.7944 46.0457 18.9496 45.972 19.1212C45.8983 19.2927 45.8596 19.4772 45.8579 19.664C45.8563 19.8507 45.8919 20.0359 45.9626 20.2087C46.0333 20.3815 46.1377 20.5385 46.2698 20.6706C46.4018 20.8026 46.5588 20.907 46.7316 20.9777C46.9044 21.0484 47.0896 21.084 47.2763 21.0824C47.4631 21.0808 47.6476 21.042 47.8192 20.9683C47.9907 20.8946 48.1459 20.7874 48.2756 20.6531L53.0128 15.9169L57.1303 20.0344C57.3269 20.2311 57.5775 20.3651 57.8502 20.4195C58.123 20.4738 58.4058 20.446 58.6628 20.3397C58.9198 20.2333 59.1395 20.0531 59.2941 19.8219C59.4487 19.5906 59.5312 19.3188 59.5312 19.0406V4.5C59.5303 3.63006 59.1842 2.79604 58.5691 2.1809C57.954 1.56576 57.1199 1.21974 56.25 1.21875ZM15.1669 53.7628L17.4825 51.4472C17.6167 51.3174 17.7238 51.1622 17.7974 50.9906C17.871 50.819 17.9097 50.6344 17.9113 50.4477C17.9128 50.261 17.8771 50.0758 17.8064 49.903C17.7356 49.7303 17.6311 49.5733 17.499 49.4413C17.3669 49.3093 17.2098 49.205 17.037 49.1344C16.8641 49.0637 16.6789 49.0283 16.4922 49.03C16.3055 49.0317 16.121 49.0706 15.9494 49.1443C15.7779 49.2181 15.6228 49.3253 15.4931 49.4597L12.1838 52.7691C11.9204 53.0327 11.7725 53.3902 11.7725 53.7628C11.7725 54.1355 11.9204 54.4929 12.1838 54.7566L14.8969 57.4688H3.75C3.62576 57.4685 3.50667 57.419 3.41882 57.3312C3.33096 57.2433 3.2815 57.1242 3.28125 57V45.8541L5.99344 48.5663C6.25711 48.8296 6.61453 48.9775 6.98719 48.9775C7.35985 48.9775 7.71726 48.8296 7.98094 48.5663L13.1578 43.3913C13.2922 43.2616 13.3994 43.1065 13.4732 42.9349C13.5469 42.7634 13.5858 42.5789 13.5875 42.3922C13.5892 42.2055 13.5538 42.0203 13.4831 41.8474C13.4125 41.6746 13.3082 41.5175 13.1762 41.3854C13.0442 41.2533 12.8872 41.1488 12.7145 41.078C12.5417 41.0072 12.3565 40.9716 12.1698 40.9731C11.9831 40.9746 11.7985 41.0133 11.6269 41.087C11.4553 41.1606 11.3001 41.2676 11.1703 41.4019L6.98719 45.5831L2.86969 41.4656C2.6729 41.2693 2.42239 41.1357 2.14976 41.0816C1.87713 41.0276 1.59459 41.0554 1.33777 41.1617C1.08096 41.268 0.861376 41.448 0.706718 41.6789C0.55206 41.9099 0.469256 42.1814 0.46875 42.4594V57C0.469743 57.8699 0.815763 58.704 1.4309 59.3191C2.04604 59.9342 2.88006 60.2803 3.75 60.2812H18.2906C18.5684 60.2806 18.8397 60.1977 19.0705 60.0431C19.3012 59.8885 19.481 59.669 19.5873 59.4124C19.6935 59.1558 19.7215 58.8735 19.6676 58.601C19.6137 58.3285 19.4803 58.0781 19.2844 57.8812L15.1669 53.7628ZM2.86875 20.0344L6.98719 15.9169L11.7244 20.6531C11.9904 20.9048 12.344 21.0428 12.7102 21.0378C13.0763 21.0328 13.4261 20.8852 13.6851 20.6263C13.9441 20.3674 14.0919 20.0178 14.0971 19.6516C14.1022 19.2855 13.9644 18.9317 13.7128 18.6656L7.98187 12.9338C7.71816 12.6701 7.36054 12.522 6.98766 12.522C6.61477 12.522 6.25715 12.6701 5.99344 12.9338L3.28125 15.6469V4.5C3.2815 4.37576 3.33096 4.25667 3.41882 4.16882C3.50667 4.08096 3.62576 4.0315 3.75 4.03125H14.8959L12.1838 6.74344C11.9204 7.00711 11.7725 7.36453 11.7725 7.73719C11.7725 8.10985 11.9204 8.46726 12.1838 8.73094L17.9962 14.5434C18.2623 14.795 18.6161 14.9329 18.9822 14.9277C19.3484 14.9225 19.6981 14.7747 19.9569 14.5157C20.2158 14.2567 20.3635 13.907 20.3685 13.5408C20.3735 13.1746 20.2354 12.821 19.9837 12.555L15.1669 7.73719L19.2844 3.61969C19.4807 3.4229 19.6143 3.17239 19.6684 2.89976C19.7224 2.62713 19.6946 2.34459 19.5883 2.08777C19.482 1.83096 19.302 1.61138 19.0711 1.45672C18.8401 1.30206 18.5686 1.21926 18.2906 1.21875H3.75C2.88006 1.21974 2.04604 1.56576 1.4309 2.1809C0.815763 2.79604 0.469743 3.63006 0.46875 4.5V19.0406C0.469439 19.3184 0.552309 19.5897 0.706921 19.8205C0.861533 20.0512 1.08097 20.231 1.33759 20.3373C1.59422 20.4435 1.87655 20.4715 2.14902 20.4176C2.42149 20.3637 2.67191 20.2303 2.86875 20.0344Z" fill="black"/>
</g>
<defs>
<clipPath id="clip0_3785_11098">
<rect width="60" height="60" fill="white" transform="translate(0 0.75)"/>
</clipPath>
</defs>
</svg>
