<svg width="60" height="60" viewBox="0 0 60 60" fill="none" xmlns="http://www.w3.org/2000/svg">
<g clip-path="url(#clip0_3785_11103)">
<path d="M32.2109 26.7853H37.1872L34.7103 20.2228L32.2109 26.7853Z" fill="#303DBF"/>
<path d="M34.6875 11.7188C31.9989 11.7188 29.3707 12.516 27.1352 14.0097C24.8997 15.5034 23.1574 17.6265 22.1285 20.1104C21.0996 22.5943 20.8304 25.3276 21.355 27.9645C21.8795 30.6014 23.1742 33.0236 25.0753 34.9247C26.9764 36.8259 29.3986 38.1205 32.0355 38.645C34.6724 39.1696 37.4057 38.9004 39.8896 37.8715C42.3735 36.8426 44.4966 35.1003 45.9903 32.8648C47.484 30.6293 48.2813 28.0011 48.2813 25.3125C48.277 21.7085 46.8435 18.2533 44.2951 15.7049C41.7467 13.1565 38.2915 11.723 34.6875 11.7188ZM41.1056 33.1903C40.7568 33.322 40.3699 33.3098 40.0301 33.1563C39.6902 33.0028 39.4253 32.7207 39.2934 32.3719L38.2472 29.5978H31.1381L30.0797 32.3756C30.0162 32.5512 29.9184 32.7123 29.7919 32.8496C29.6655 32.987 29.513 33.0978 29.3433 33.1755C29.1736 33.2533 28.9901 33.2965 28.8036 33.3027C28.617 33.3088 28.4311 33.2778 28.2566 33.2113C28.0822 33.1448 27.9227 33.0443 27.7876 32.9156C27.6524 32.7868 27.5442 32.6325 27.4693 32.4615C27.3944 32.2905 27.3542 32.1063 27.3513 31.9197C27.3483 31.733 27.3825 31.5477 27.4519 31.3744L33.0844 16.5862C33.2099 16.2601 33.4304 15.9792 33.7173 15.7798C34.0043 15.5803 34.3444 15.4716 34.6939 15.4677C35.0433 15.4638 35.3858 15.5648 35.6772 15.7577C35.9685 15.9506 36.1953 16.2265 36.3281 16.5497L41.925 31.3781C41.9902 31.5509 42.0207 31.7349 42.0148 31.9194C42.0089 32.104 41.9667 32.2856 41.8907 32.4539C41.8146 32.6222 41.7061 32.7739 41.5714 32.9002C41.4367 33.0266 41.2784 33.1251 41.1056 33.1903Z" fill="#303DBF"/>
<path d="M48.3253 38.8359C50.5082 36.6411 52.1274 33.9506 53.0448 30.9942C53.9621 28.0378 54.1504 24.9033 53.5934 21.8583C53.0363 18.8133 51.7507 15.9484 49.8461 13.5082C47.9416 11.068 45.4747 9.12492 42.6562 7.845V4.6875C42.655 3.569 42.2101 2.49666 41.4192 1.70576C40.6283 0.914863 39.556 0.469991 38.4375 0.46875H4.6875C3.569 0.469991 2.49666 0.914863 1.70576 1.70576C0.914863 2.49666 0.469991 3.569 0.46875 4.6875V51.5625C0.471231 53.6752 1.31159 55.7006 2.80548 57.1945C4.29938 58.6884 6.32482 59.5288 8.4375 59.5312H42.1875C44.3002 59.5288 46.3256 58.6884 47.8195 57.1945C49.3134 55.7006 50.1538 53.6752 50.1562 51.5625C50.155 50.444 49.7101 49.3717 48.9192 48.5808C48.1283 47.7899 47.056 47.345 45.9375 47.3438H42.6562V42.78C43.905 42.2067 45.0887 41.5011 46.1869 40.6753L57.1303 51.6188C57.2609 51.7494 57.416 51.853 57.5867 51.9237C57.7573 51.9944 57.9403 52.0308 58.125 52.0308C58.3097 52.0308 58.4927 51.9944 58.6633 51.9237C58.834 51.853 58.9891 51.7494 59.1197 51.6188C59.2503 51.4881 59.3539 51.3331 59.4246 51.1624C59.4953 50.9917 59.5317 50.8088 59.5317 50.6241C59.5317 50.4393 59.4953 50.2564 59.4246 50.0857C59.3539 49.9151 59.2503 49.76 59.1197 49.6294L48.3253 38.8359ZM51.0938 25.3125C51.0938 28.5573 50.1315 31.7293 48.3288 34.4273C46.5261 37.1253 43.9638 39.2281 40.9659 40.4699C37.9681 41.7116 34.6693 42.0365 31.4868 41.4035C28.3043 40.7705 25.381 39.2079 23.0865 36.9135C20.7921 34.619 19.2295 31.6957 18.5965 28.5132C17.9635 25.3307 18.2884 22.0319 19.5301 19.0341C20.7719 16.0362 22.8747 13.4739 25.5727 11.6712C28.2707 9.86846 31.4427 8.90625 34.6875 8.90625C39.0372 8.91121 43.2073 10.6413 46.283 13.717C49.3587 16.7927 51.0888 20.9628 51.0938 25.3125ZM47.3438 51.5625C47.3423 52.9296 46.7985 54.2402 45.8319 55.2069C44.8652 56.1735 43.5546 56.7173 42.1875 56.7188H14.5087C15.7352 55.2808 16.408 53.4524 16.4062 51.5625C16.4067 51.1897 16.5551 50.8323 16.8187 50.5687C17.0823 50.3051 17.4397 50.1567 17.8125 50.1562H45.9375C46.3103 50.1567 46.6677 50.3051 46.9313 50.5687C47.1949 50.8323 47.3433 51.1897 47.3438 51.5625ZM39.8438 47.3438H17.8125C16.694 47.345 15.6217 47.7899 14.8308 48.5808C14.0399 49.3717 13.595 50.444 13.5938 51.5625C13.5937 52.93 13.0505 54.2415 12.0835 55.2085C11.1165 56.1755 9.80502 56.7188 8.4375 56.7188C7.06998 56.7188 5.75847 56.1755 4.79148 55.2085C3.8245 54.2415 3.28125 52.93 3.28125 51.5625V4.6875C3.28175 4.31469 3.43006 3.95729 3.69368 3.69368C3.95729 3.43006 4.31469 3.28175 4.6875 3.28125H38.4375C38.8103 3.28175 39.1677 3.43006 39.4313 3.69368C39.6949 3.95729 39.8433 4.31469 39.8438 4.6875V6.81656C36.9859 6.00982 33.9799 5.87631 31.0618 6.42649C28.1437 6.97668 25.3927 8.1956 23.0248 9.98761C20.6569 11.7796 18.7365 14.096 17.4142 16.7549C16.092 19.4138 15.4038 22.3429 15.4038 25.3125C15.4038 28.2821 16.092 31.2112 17.4142 33.8701C18.7365 36.529 20.6569 38.8454 23.0248 40.6374C25.3927 42.4294 28.1437 43.6483 31.0618 44.1985C33.9799 44.7487 36.9859 44.6152 39.8438 43.8084V47.3438Z" fill="black"/>
<path d="M7.5 8.90625H15C15.373 8.90625 15.7306 8.75809 15.9944 8.49437C16.2581 8.23065 16.4062 7.87296 16.4062 7.5C16.4062 7.12704 16.2581 6.76935 15.9944 6.50563C15.7306 6.24191 15.373 6.09375 15 6.09375H7.5C7.12704 6.09375 6.76935 6.24191 6.50563 6.50563C6.24191 6.76935 6.09375 7.12704 6.09375 7.5C6.09375 7.87296 6.24191 8.23065 6.50563 8.49437C6.76935 8.75809 7.12704 8.90625 7.5 8.90625ZM7.5 14.5312H15C15.373 14.5312 15.7306 14.3831 15.9944 14.1194C16.2581 13.8556 16.4062 13.498 16.4062 13.125C16.4062 12.752 16.2581 12.3944 15.9944 12.1306C15.7306 11.8669 15.373 11.7188 15 11.7188H7.5C7.12704 11.7188 6.76935 11.8669 6.50563 12.1306C6.24191 12.3944 6.09375 12.752 6.09375 13.125C6.09375 13.498 6.24191 13.8556 6.50563 14.1194C6.76935 14.3831 7.12704 14.5312 7.5 14.5312ZM7.5 23.9062H12.1875C12.5605 23.9062 12.9181 23.7581 13.1819 23.4944C13.4456 23.2306 13.5937 22.873 13.5938 22.5C13.5937 22.127 13.4456 21.7694 13.1819 21.5056C12.9181 21.2419 12.5605 21.0938 12.1875 21.0938H7.5C7.12704 21.0938 6.76935 21.2419 6.50563 21.5056C6.24191 21.7694 6.09375 22.127 6.09375 22.5C6.09375 22.873 6.24191 23.2306 6.50563 23.4944C6.76935 23.7581 7.12704 23.9062 7.5 23.9062ZM7.5 31.4062H12.1875C12.5605 31.4062 12.9181 31.2581 13.1819 30.9944C13.4456 30.7306 13.5937 30.373 13.5938 30C13.5937 29.627 13.4456 29.2694 13.1819 29.0056C12.9181 28.7419 12.5605 28.5938 12.1875 28.5938H7.5C7.12704 28.5938 6.76935 28.7419 6.50563 29.0056C6.24191 29.2694 6.09375 29.627 6.09375 30C6.09375 30.373 6.24191 30.7306 6.50563 30.9944C6.76935 31.2581 7.12704 31.4062 7.5 31.4062ZM15.9375 36.0938H7.5C7.12704 36.0938 6.76935 36.2419 6.50563 36.5056C6.24191 36.7694 6.09375 37.127 6.09375 37.5C6.09375 37.873 6.24191 38.2306 6.50563 38.4944C6.76935 38.7581 7.12704 38.9062 7.5 38.9062H15.9375C16.3105 38.9062 16.6681 38.7581 16.9319 38.4944C17.1956 38.2306 17.3438 37.873 17.3438 37.5C17.3438 37.127 17.1956 36.7694 16.9319 36.5056C16.6681 36.2419 16.3105 36.0938 15.9375 36.0938Z" fill="black"/>
</g>
<defs>
<clipPath id="clip0_3785_11103">
<rect width="60" height="60" fill="white"/>
</clipPath>
</defs>
</svg>
