<svg width="64" height="64" viewBox="0 0 64 64" fill="none" xmlns="http://www.w3.org/2000/svg">
<path d="M51.9562 44.4986C51.6639 42.8178 50.9464 41.2397 49.872 39.9144C48.7976 38.5892 47.402 37.5609 45.818 36.9272L36 33H28L18.182 36.9272C16.598 37.5608 15.2024 38.5892 14.128 39.9144C13.0536 41.2396 12.3361 42.8177 12.0437 44.4985L9 62H55L51.9562 44.4986Z" fill="#90B3F8"/>
<path d="M31.9999 41C32.8942 40.9998 33.777 40.7998 34.584 40.4146C35.391 40.0293 36.1017 39.4686 36.6641 38.7735C37.2266 38.0783 37.6265 37.2662 37.8348 36.3966C38.0431 35.527 38.0544 34.6218 37.8679 33.7472L35.9999 33H27.9999L26.1319 33.7472C25.9455 34.6218 25.9568 35.527 26.1651 36.3966C26.3733 37.2662 26.7733 38.0783 27.3358 38.7735C27.8982 39.4686 28.6089 40.0293 29.4159 40.4146C30.2229 40.7998 31.1057 40.9998 31.9999 41Z" fill="#82C4B7"/>
<path d="M36.0001 33H30.3335L37.0001 41L43.1622 35.8649L36.0001 33Z" fill="#00EDA6"/>
<path d="M28 33L20.8379 35.8649L27 41L33.6666 33H28Z" fill="#00EDA6"/>
<path d="M42 18V11H22V18C21.5432 18.2284 21.1472 18.5621 20.8447 18.9736C20.5421 19.3851 20.3417 19.8626 20.2599 20.3667C20.1781 20.8708 20.2172 21.3872 20.3741 21.8733C20.531 22.3593 20.8012 22.8011 21.1623 23.1622L22 24L22.0029 24.0172C22.3177 25.9057 23.0164 27.7096 24.0559 29.3173C25.0955 30.925 26.4537 32.3024 28.0467 33.3644L28.6718 33.7812C29.6574 34.4383 30.8155 34.789 32 34.789C33.1846 34.789 34.3427 34.4383 35.3283 33.7812L35.9534 33.3644C37.5464 32.3024 38.9046 30.925 39.9442 29.3173C40.9837 27.7096 41.6824 25.9057 41.9972 24.0172L42 24L42.8378 23.1622C43.1989 22.8011 43.4691 22.3593 43.626 21.8733C43.7829 21.3872 43.822 20.8708 43.7402 20.3667C43.6584 19.8626 43.458 19.3851 43.1554 18.9736C42.8529 18.5621 42.4569 18.2284 42 18Z" fill="#FFD4C7"/>
<path d="M22.0001 18C23.3262 18 24.5979 17.4732 25.5356 16.5355C26.4733 15.5979 27.0001 14.3261 27.0001 13V12L28.6232 13.0821C29.9729 13.9819 31.5212 14.5399 33.1346 14.7079C34.7481 14.8759 36.3781 14.6488 37.8842 14.0464L38.0001 14L42.0001 18C43.3042 16.0439 44.0001 13.7455 44.0001 11.3945V3L38.0001 5V3L32.0001 5V3L27.254 3.47463C25.7039 3.62963 24.2361 4.24654 23.0408 5.24543C21.8454 6.24432 20.9775 7.57915 20.5496 9.077C20.1905 10.3339 20.1905 11.6661 20.5496 12.923L22.0001 18Z" fill="#F88C8C"/>
<path d="M32.6838 26.9487L31.696 26.6194C31.3082 26.4901 30.9509 26.2829 30.646 26.0106C30.3411 25.7382 30.0951 25.4064 29.9232 25.0355C29.7512 24.6646 29.6568 24.2625 29.6458 23.8539C29.6348 23.4452 29.7075 23.0386 29.8594 22.659L31.0715 19.6285L32.9285 20.3713L31.7162 23.4019C31.6657 23.5284 31.6414 23.664 31.6451 23.8002C31.6488 23.9364 31.6803 24.0704 31.7376 24.194C31.7949 24.3176 31.8769 24.4282 31.9785 24.519C32.0801 24.6098 32.1992 24.6788 32.3285 24.7219L33.3162 25.0513L32.6838 26.9487ZM32 30.9939C30.8151 30.9935 29.6568 30.6417 28.6719 29.9829L28.4454 29.8319L29.5548 28.1679L29.7812 28.3189C30.4378 28.7582 31.21 28.9928 32 28.9928C32.79 28.9928 33.5622 28.7582 34.2188 28.3189L34.4454 28.1679L35.5547 29.8319L35.3283 29.9829C34.3432 30.6416 33.185 30.9934 32 30.9939ZM26 19.9999H28V21.9999H26V19.9999ZM35 19.9999H37V21.9999H35V19.9999Z" fill="#EFB39E"/>
<path d="M18.182 36.9272C16.598 37.5608 15.2024 38.5891 14.128 39.9143C13.0536 41.2395 12.3361 42.8176 12.0437 44.4984L9 61.9999H23L20.985 35.8059L18.182 36.9272ZM45.818 36.9272L43.0149 35.8059L41 61.9999H55L51.9562 44.4985C51.6639 42.8177 50.9464 41.2396 49.872 39.9144C48.7976 38.5891 47.402 37.5608 45.818 36.9272Z" fill="#A0A6E2"/>
<path d="M31.696 26.6194L32.6838 26.9485L33.3162 25.0513L32.3285 24.722C32.1992 24.6789 32.0801 24.6099 31.9785 24.5191C31.8769 24.4283 31.7949 24.3177 31.7375 24.1941C31.6802 24.0705 31.6487 23.9364 31.6451 23.8002C31.6414 23.664 31.6656 23.5284 31.7162 23.4019L32.9285 20.3713L31.0715 19.6285L29.8594 22.659C29.7075 23.0386 29.6348 23.4452 29.6458 23.8539C29.6568 24.2625 29.7512 24.6646 29.9232 25.0355C30.0951 25.4064 30.3411 25.7382 30.646 26.0106C30.9509 26.2829 31.3082 26.4901 31.696 26.6194ZM32 30.9939C33.1849 30.9934 34.3431 30.6416 35.3281 29.9829L35.5546 29.8319L34.4453 28.1679L34.2188 28.3189C33.5622 28.7582 32.79 28.9928 32 28.9928C31.21 28.9928 30.4378 28.7582 29.7812 28.3189L29.5546 28.1679L28.4452 29.8319L28.6717 29.9829C29.6568 30.6417 30.815 30.9935 32 30.9939ZM26 19.9999H28V21.9999H26V19.9999ZM35 19.9999H37V21.9999H35V19.9999Z" fill="black"/>
<path d="M52.9414 44.3272C52.6264 42.4758 51.8395 40.7369 50.6569 39.2781C49.4742 37.8193 47.9356 36.6898 46.1894 35.9987L38.2609 32.8273C40.6815 30.6268 42.3202 27.6984 42.9297 24.4843L43.5447 23.8693C43.9528 23.4609 44.2729 22.9732 44.4852 22.4362C44.6976 21.8993 44.7977 21.3246 44.7793 20.7475C44.761 20.1704 44.6246 19.6032 44.3786 19.0808C44.1326 18.5584 43.7821 18.092 43.3489 17.7103C44.4333 15.7821 45.0019 13.6067 44.9999 11.3945V2.99995C44.9999 2.84149 44.9623 2.6853 44.8901 2.54424C44.8179 2.40319 44.7132 2.28131 44.5846 2.18865C44.4561 2.09599 44.3074 2.03521 44.1507 2.01132C43.9941 1.98742 43.834 2.00109 43.6837 2.0512L38.9999 3.61245V2.99995C38.9999 2.84149 38.9623 2.6853 38.8901 2.54424C38.8179 2.40319 38.7132 2.28131 38.5846 2.18865C38.4561 2.09599 38.3074 2.03521 38.1507 2.01132C37.9941 1.98742 37.834 2.00109 37.6837 2.0512L32.9999 3.61245V2.99995C32.9999 2.86024 32.9706 2.72208 32.9139 2.59438C32.8573 2.46668 32.7745 2.35227 32.6709 2.25853C32.5673 2.16478 32.4452 2.09378 32.3125 2.05011C32.1798 2.00643 32.0394 1.99105 31.9004 2.00495L27.1543 2.47945C25.4029 2.64835 23.7434 3.34239 22.3932 4.47063C21.043 5.59887 20.0652 7.10868 19.5878 8.8022C19.177 10.2386 19.177 11.7613 19.5878 13.1977L20.834 17.5596C20.3642 17.9285 19.9779 18.3928 19.7007 18.9219C19.4234 19.4511 19.2616 20.033 19.2258 20.6293C19.19 21.2255 19.281 21.8226 19.493 22.3811C19.7049 22.9397 20.0328 23.4469 20.4552 23.8693L21.07 24.4843C21.6794 27.6984 23.3182 30.6269 25.7389 32.8273L17.8104 35.9987C16.0642 36.6898 14.5256 37.8193 13.3429 39.2781C12.1603 40.7369 11.3735 42.4758 11.0584 44.3272L8.01465 61.8287L9.98515 62.1715L13.0289 44.6699C13.2867 43.1552 13.9304 41.7324 14.8981 40.5389C15.8657 39.3453 17.1246 38.4213 18.5533 37.8558L20.0923 37.2402L22.0028 62.0768L23.997 61.9233L22.1785 38.2841L26.3598 41.7683C26.5635 41.9381 26.8264 42.02 27.0905 41.996C27.3546 41.972 27.5984 41.8441 27.7682 41.6403L28.3329 40.9626C29.4358 41.6409 30.7051 42 31.9999 42C33.2947 42 34.564 41.6409 35.6669 40.9626L36.2317 41.6403C36.3157 41.7412 36.4189 41.8246 36.5351 41.8856C36.6514 41.9466 36.7786 41.9842 36.9094 41.9961C37.0402 42.0079 37.172 41.994 37.2974 41.9549C37.4228 41.9158 37.5393 41.8524 37.6402 41.7683L41.8213 38.2841L40.0028 61.9233L41.997 62.0768L43.9074 37.24L45.4464 37.8556C46.8751 38.421 48.134 39.3451 49.1017 40.5386C50.0693 41.7322 50.7131 43.1549 50.9709 44.6697L54.0147 62.1712L55.985 61.8284L52.9414 44.3272ZM21.5109 9.35158C21.8795 8.04393 22.6346 6.87815 23.6771 6.007C24.7197 5.13585 26.0011 4.59996 27.3534 4.46958L30.9999 4.10495V4.99995C30.9999 5.15841 31.0375 5.31461 31.1097 5.45566C31.1819 5.59672 31.2866 5.7186 31.4152 5.81125C31.5437 5.90391 31.6924 5.96469 31.8491 5.98859C32.0057 6.01249 32.1658 5.99882 32.3162 5.9487L36.9999 4.38745V4.99995C36.9999 5.15841 37.0375 5.31461 37.1097 5.45566C37.1819 5.59672 37.2866 5.7186 37.4152 5.81125C37.5437 5.90391 37.6924 5.96469 37.8491 5.98859C38.0057 6.01249 38.1658 5.99882 38.3162 5.9487L42.9999 4.38745V11.3945C43.0016 13.1287 42.5883 14.8383 41.7944 16.3802L38.7069 13.2928C38.5685 13.1544 38.3925 13.0596 38.2008 13.0203C38.0091 12.981 37.81 12.9988 37.6283 13.0716L37.5127 13.1178C36.1572 13.6602 34.6901 13.8646 33.238 13.7134C31.7858 13.5622 30.3923 13.06 29.1777 12.25L27.5547 11.168C27.4041 11.0675 27.229 11.0099 27.0482 11.0011C26.8674 10.9924 26.6877 11.0329 26.5281 11.1183C26.3685 11.2037 26.2351 11.3308 26.1421 11.4861C26.049 11.6413 25.9999 11.8189 25.9999 12V13C25.9987 13.933 25.6719 14.8364 25.0759 15.5543C24.4798 16.2722 23.6519 16.7595 22.7349 16.9322L21.5109 12.6482C21.2028 11.5709 21.2028 10.4289 21.5109 9.35158ZM22.9893 23.8535L22.9864 23.8361C22.9522 23.6303 22.8545 23.4403 22.707 23.2928L21.8693 22.4552C21.6322 22.2183 21.4518 21.9308 21.3416 21.6142C21.2314 21.2977 21.1942 20.9604 21.2328 20.6274C21.2714 20.2945 21.3848 19.9746 21.5645 19.6917C21.7442 19.4087 21.9856 19.1701 22.2705 18.9937C23.6694 18.9287 25.0017 18.3772 26.0373 17.4345C27.0729 16.4918 27.7468 15.217 27.9427 13.8303L28.0684 13.9141C29.4769 14.8534 31.0834 15.4549 32.7625 15.6715C34.4416 15.8882 36.1481 15.7142 37.7489 15.1632L41.2928 18.707C41.369 18.7828 41.4569 18.8458 41.5532 18.8936L41.5527 18.8943C41.8678 19.0519 42.1409 19.2821 42.3497 19.5659C42.5584 19.8497 42.6966 20.1791 42.7531 20.5268C42.8095 20.8746 42.7825 21.2308 42.6742 21.5661C42.566 21.9013 42.3797 22.2061 42.1305 22.4552L41.2928 23.2928C41.1453 23.4403 41.0476 23.6303 41.0134 23.8361L41.0107 23.8528C40.7157 25.6055 40.0658 27.2794 39.1008 28.7719C38.1357 30.2644 36.8759 31.544 35.3987 32.5322L34.7734 32.9491C33.9527 33.4983 32.9874 33.7915 31.9999 33.7915C31.0124 33.7915 30.0471 33.4983 29.2264 32.9491L28.6012 32.5323C27.1239 31.5442 25.8642 30.2647 24.8992 28.7723C23.9342 27.2799 23.2842 25.606 22.9893 23.8535ZM26.8718 39.5916L22.7665 36.1703L27.5704 34.2488L28.117 34.6132C28.7633 35.0448 29.4768 35.366 30.2284 35.5637L26.8718 39.5916ZM31.9999 40C31.1734 40.0002 30.3597 39.7953 29.6319 39.4036L31.9999 36.5621L34.3679 39.4036C33.6401 39.7953 32.8264 40.0002 31.9999 40ZM37.1279 39.5916L33.7713 35.5636C34.5229 35.3659 35.2364 35.0447 35.8828 34.6132L36.4294 34.2488L41.2333 36.1703L37.1279 39.5916Z" fill="black"/>
</svg>
