<svg width="265" height="308" viewBox="0 0 265 308" fill="none" xmlns="http://www.w3.org/2000/svg">
<g clip-path="url(#clip0_110_3502)">
<g opacity="0.4" clip-path="url(#clip1_110_3502)">
<path d="M54.1843 -27.02L187.484 49.94C204.544 59.79 210.384 81.5999 200.534 98.6599C190.684 115.72 168.874 121.56 151.814 111.71L18.5143 34.75C1.45433 24.9 -4.3857 3.08992 5.46431 -13.9701C15.3143 -31.0201 37.1343 -36.87 54.1843 -27.02Z" fill="url(#paint0_linear_110_3502)"/>
<path d="M151.844 49.94L285.144 -27.02C302.204 -36.87 324.014 -31.0201 333.864 -13.9701C343.714 3.08992 337.864 24.9 320.814 34.75L187.514 111.71C170.454 121.56 148.644 115.71 138.794 98.6599C128.934 81.6099 134.784 59.79 151.844 49.94Z" fill="url(#paint1_linear_110_3502)"/>
<path d="M134.004 80.83C134.004 100.53 149.975 116.5 169.674 116.5C189.374 116.5 205.344 100.53 205.344 80.83C205.344 61.13 189.374 45.1599 169.674 45.1599C149.975 45.1599 134.004 61.13 134.004 80.83Z" fill="#05E5DF"/>
<path d="M0.34433 3.66992C0.34433 23.3699 16.3143 39.34 36.0143 39.34C55.7143 39.34 71.6843 23.3699 71.6843 3.66992C71.6843 -16.0301 55.7143 -32 36.0143 -32C16.3143 -32 0.34433 -16.0301 0.34433 3.66992Z" fill="#05E5DF"/>
<path d="M53.8985 68.4701L187.339 145.51C204.419 155.37 210.269 177.2 200.409 194.28C190.549 211.36 168.719 217.21 151.639 207.35L18.1985 130.31C1.11852 120.45 -4.73149 98.6201 5.12851 81.5401C14.9785 64.4701 36.8185 58.6201 53.8985 68.4701Z" fill="url(#paint2_linear_110_3502)"/>
<path d="M151.648 145.52L285.088 68.4802C302.168 58.6202 323.998 64.4701 333.858 81.5501C343.718 98.6301 337.868 120.46 320.788 130.32L187.348 207.36C170.268 217.22 148.438 211.37 138.578 194.29C128.718 177.21 134.568 155.38 151.648 145.52Z" fill="url(#paint3_linear_110_3502)"/>
<path d="M133.798 176.44C133.798 196.157 149.782 212.14 169.498 212.14C189.215 212.14 205.198 196.157 205.198 176.44C205.198 156.723 189.215 140.74 169.498 140.74C149.782 140.74 133.798 156.723 133.798 176.44Z" fill="#FFF0B3"/>
<path d="M-0.00158691 99.2001C-0.00158691 118.917 15.9819 134.9 35.6984 134.9C55.415 134.9 71.3984 118.917 71.3984 99.2001C71.3984 79.4835 55.415 63.5 35.6984 63.5C15.9819 63.5 -0.00158691 79.4835 -0.00158691 99.2001Z" fill="#FFF0B3"/>
<path d="M53.8985 164.12L187.339 241.16C204.419 251.02 210.269 272.85 200.409 289.93C190.549 307.01 168.719 312.86 151.639 303L18.1985 225.96C1.11852 216.1 -4.73149 194.27 5.12851 177.19C14.9785 160.12 36.8185 154.27 53.8985 164.12Z" fill="url(#paint4_linear_110_3502)"/>
<path d="M151.648 241.17L285.088 164.13C302.168 154.27 323.998 160.12 333.858 177.2C343.718 194.28 337.868 216.11 320.788 225.97L187.348 303.01C170.268 312.87 148.438 307.02 138.578 289.94C128.718 272.86 134.568 251.03 151.648 241.17Z" fill="url(#paint5_linear_110_3502)"/>
<path d="M133.798 272.09C133.798 291.807 149.782 307.79 169.498 307.79C189.215 307.79 205.198 291.807 205.198 272.09C205.198 252.374 189.215 236.39 169.498 236.39C149.782 236.39 133.798 252.374 133.798 272.09Z" fill="#05E5DF"/>
<path d="M-0.00158691 194.85C-0.00158691 214.567 15.9819 230.55 35.6984 230.55C55.415 230.55 71.3984 214.567 71.3984 194.85C71.3984 175.134 55.415 159.15 35.6984 159.15C15.9819 159.15 -0.00158691 175.134 -0.00158691 194.85Z" fill="#05E5DF"/>
</g>
</g>
<defs>
<linearGradient id="paint0_linear_110_3502" x1="5.48031" y1="-13.9125" x2="200.557" y2="98.7118" gradientUnits="userSpaceOnUse">
<stop offset="0.1" stop-color="#303DBF"/>
<stop offset="0.1449" stop-color="#2B51C3"/>
<stop offset="0.2601" stop-color="#1F7ECB"/>
<stop offset="0.3761" stop-color="#16A3D2"/>
<stop offset="0.4913" stop-color="#0FC0D8"/>
<stop offset="0.6053" stop-color="#09D4DC"/>
<stop offset="0.7177" stop-color="#06E1DE"/>
<stop offset="0.8268" stop-color="#05E5DF"/>
</linearGradient>
<linearGradient id="paint1_linear_110_3502" x1="333.87" y1="-13.9175" x2="138.797" y2="98.7117" gradientUnits="userSpaceOnUse">
<stop offset="0.1732" stop-color="#05E5DF"/>
<stop offset="0.2833" stop-color="#06E1DE"/>
<stop offset="0.3969" stop-color="#09D4DC"/>
<stop offset="0.512" stop-color="#0FC0D8"/>
<stop offset="0.6283" stop-color="#16A3D2"/>
<stop offset="0.7455" stop-color="#1F7ECB"/>
<stop offset="0.8618" stop-color="#2B51C3"/>
<stop offset="0.9072" stop-color="#303DBF"/>
</linearGradient>
<linearGradient id="paint2_linear_110_3502" x1="5.13412" y1="81.5973" x2="200.415" y2="194.339" gradientUnits="userSpaceOnUse">
<stop stop-color="#F45151"/>
<stop offset="0.1232" stop-color="#F7773B"/>
<stop offset="0.266" stop-color="#FA9C26"/>
<stop offset="0.4093" stop-color="#FCB915"/>
<stop offset="0.5512" stop-color="#FECD09"/>
<stop offset="0.6911" stop-color="#FFDA02"/>
<stop offset="0.8268" stop-color="#FFDE00"/>
</linearGradient>
<linearGradient id="paint3_linear_110_3502" x1="333.868" y1="81.5922" x2="138.59" y2="194.339" gradientUnits="userSpaceOnUse">
<stop offset="0.1732" stop-color="#FFDE00"/>
<stop offset="0.3089" stop-color="#FFDA02"/>
<stop offset="0.4488" stop-color="#FECD09"/>
<stop offset="0.5907" stop-color="#FCB915"/>
<stop offset="0.734" stop-color="#FA9C26"/>
<stop offset="0.8768" stop-color="#F7773B"/>
<stop offset="1" stop-color="#F45151"/>
</linearGradient>
<linearGradient id="paint4_linear_110_3502" x1="5.13198" y1="177.25" x2="200.413" y2="289.993" gradientUnits="userSpaceOnUse">
<stop offset="0.00372417" stop-color="#303DBF"/>
<stop offset="0.1728" stop-color="#374AD4"/>
<stop offset="0.3944" stop-color="#3E57E8"/>
<stop offset="0.6139" stop-color="#425FF5"/>
<stop offset="0.8268" stop-color="#4362F9"/>
</linearGradient>
<linearGradient id="paint5_linear_110_3502" x1="333.866" y1="177.245" x2="138.588" y2="289.992" gradientUnits="userSpaceOnUse">
<stop offset="0.1732" stop-color="#4362F9"/>
<stop offset="0.3861" stop-color="#425FF5"/>
<stop offset="0.6056" stop-color="#3E57E8"/>
<stop offset="0.8272" stop-color="#374AD4"/>
<stop offset="0.9963" stop-color="#303DBF"/>
</linearGradient>
<clipPath id="clip0_110_3502">
<rect width="339" height="308" fill="white"/>
</clipPath>
<clipPath id="clip1_110_3502">
<rect width="339.8" height="338.65" fill="white" transform="matrix(0 1 -1 0 338.648 -32)"/>
</clipPath>
</defs>
</svg>
