<svg width="20" height="18" viewBox="0 0 20 18" fill="none" xmlns="http://www.w3.org/2000/svg">
<path d="M18.3333 6.5H1.66666M1.66666 5.5L1.66666 12.5C1.66666 13.9001 1.66666 14.6002 1.93914 15.135C2.17882 15.6054 2.56127 15.9878 3.03168 16.2275C3.56646 16.5 4.26652 16.5 5.66665 16.5H14.3333C15.7335 16.5 16.4335 16.5 16.9683 16.2275C17.4387 15.9878 17.8212 15.6054 18.0608 15.135C18.3333 14.6002 18.3333 13.9001 18.3333 12.5V5.5C18.3333 4.09987 18.3333 3.3998 18.0608 2.86502C17.8212 2.39462 17.4387 2.01217 16.9683 1.77248C16.4335 1.5 15.7335 1.5 14.3333 1.5L5.66666 1.5C4.26653 1.5 3.56646 1.5 3.03168 1.77248C2.56128 2.01217 2.17882 2.39462 1.93914 2.86502C1.66666 3.3998 1.66666 4.09987 1.66666 5.5Z" stroke="#667085" stroke-width="1.66667" stroke-linecap="round" stroke-linejoin="round"/>
</svg>
