<svg width="62" height="62" viewBox="0 0 62 62" fill="none" xmlns="http://www.w3.org/2000/svg">
<path d="M21.6665 1H50.9998V61H21.6665V1Z" fill="#90B3F8"/>
<path d="M1 18.3334H21.6667V61H1V18.3334Z" fill="#FFBC42"/>
<path d="M4.33325 21.6667H9.66658V27H4.33325V21.6667ZM12.9999 21.6667H18.3333V27H12.9999V21.6667ZM4.33325 30.3334H9.66658V35.6667H4.33325V30.3334ZM12.9999 30.3334H18.3333V35.6667H12.9999V30.3334ZM4.33325 39H9.66658V44.3334H4.33325V39ZM12.9999 39H18.3333V44.3334H12.9999V39ZM24.9999 4.33337H30.3333V9.66671H24.9999V4.33337ZM33.6666 4.33337H38.9999V9.66671H33.6666V4.33337ZM42.3332 4.33337H47.6666V9.66671H42.3332V4.33337ZM24.9999 13H30.3333V18.3334H24.9999V13ZM33.6666 13H38.9999V18.3334H33.6666V13ZM42.3332 13H47.6666V18.3334H42.3332V13ZM24.9999 21.6667H30.3333V27H24.9999V21.6667ZM33.6666 21.6667H38.9999V27H33.6666V21.6667ZM42.3332 21.6667H47.6666V27H42.3332V21.6667ZM24.9999 30.3334H30.3333V35.6667H24.9999V30.3334ZM33.6666 30.3334H38.9999V35.6667H33.6666V30.3334ZM42.3332 30.3334H47.6666V35.6667H42.3332V30.3334Z" fill="#DEE0F7"/>
<path d="M59.6667 61H38.3333C37.9797 61 37.6406 60.8595 37.3905 60.6095C37.1405 60.3594 37 60.0203 37 59.6667V46.3333C37 45.9797 37.1405 45.6406 37.3905 45.3905C37.6406 45.1405 37.9797 45 38.3333 45H59.6667C60.0203 45 60.3594 45.1405 60.6095 45.3905C60.8595 45.6406 61 45.9797 61 46.3333V59.6667C61 60.0203 60.8595 60.3594 60.6095 60.6095C60.3594 60.8595 60.0203 61 59.6667 61Z" fill="#F45151"/>
<path d="M41.6667 50.3334H44.3333V53.6667H41.6667V50.3334ZM53.6667 50.3334H56.3333V53.6667H53.6667V50.3334ZM41 61C41 58.7894 39.2107 57 37 57V59.6667C37 60.0203 37.1405 60.3595 37.3905 60.6095C37.6406 60.8596 37.9797 61 38.3333 61H41ZM57 61C57 58.7894 58.7893 57 61 57V59.6667C61 60.0203 60.8595 60.3595 60.6095 60.6095C60.3594 60.8596 60.0203 61 59.6667 61H57Z" fill="#FFDE00"/>
<path d="M10.8186 3.66675C11.3757 4.2239 11.8177 4.88534 12.1192 5.6133C12.4208 6.34126 12.576 7.12148 12.576 7.90941C12.576 8.69735 12.4208 9.47757 12.1192 10.2055C11.8177 10.9335 11.3757 11.5949 10.8186 12.1521C10.2614 12.7092 9.59999 13.1512 8.87204 13.4527C8.14408 13.7543 7.36386 13.9095 6.57592 13.9095C5.78798 13.9095 5.00776 13.7543 4.2798 13.4527C3.55184 13.1512 2.8904 12.7092 2.33325 12.1521L10.8186 3.66675ZM25.6666 46.3334H33.6666V61.0001H25.6666V46.3334Z" fill="#00EDA6"/>
<path d="M10.3332 21.6667C10.3332 21.4899 10.2629 21.3204 10.1379 21.1953C10.0129 21.0703 9.84332 21.0001 9.6665 21.0001H4.33317C4.15636 21.0001 3.98679 21.0703 3.86177 21.1953C3.73674 21.3204 3.6665 21.4899 3.6665 21.6667V27.0001C3.6665 27.1769 3.73674 27.3465 3.86177 27.4715C3.98679 27.5965 4.15636 27.6667 4.33317 27.6667H9.6665C9.84332 27.6667 10.0129 27.5965 10.1379 27.4715C10.2629 27.3465 10.3332 27.1769 10.3332 27.0001V21.6667ZM8.99984 26.3334H4.99984V22.3334H8.99984V26.3334ZM18.9998 21.6667C18.9998 21.4899 18.9296 21.3204 18.8046 21.1953C18.6796 21.0703 18.51 21.0001 18.3332 21.0001H12.9998C12.823 21.0001 12.6535 21.0703 12.5284 21.1953C12.4034 21.3204 12.3332 21.4899 12.3332 21.6667V27.0001C12.3332 27.1769 12.4034 27.3465 12.5284 27.4715C12.6535 27.5965 12.823 27.6667 12.9998 27.6667H18.3332C18.51 27.6667 18.6796 27.5965 18.8046 27.4715C18.9296 27.3465 18.9998 27.1769 18.9998 27.0001V21.6667ZM17.6665 26.3334H13.6665V22.3334H17.6665V26.3334ZM10.3332 30.3334C10.3332 30.1566 10.2629 29.987 10.1379 29.862C10.0129 29.737 9.84332 29.6667 9.6665 29.6667H4.33317C4.15636 29.6667 3.98679 29.737 3.86177 29.862C3.73674 29.987 3.6665 30.1566 3.6665 30.3334V35.6667C3.6665 35.8436 3.73674 36.0131 3.86177 36.1382C3.98679 36.2632 4.15636 36.3334 4.33317 36.3334H9.6665C9.84332 36.3334 10.0129 36.2632 10.1379 36.1382C10.2629 36.0131 10.3332 35.8436 10.3332 35.6667V30.3334ZM8.99984 35.0001H4.99984V31.0001H8.99984V35.0001ZM18.9998 30.3334C18.9998 30.1566 18.9296 29.987 18.8046 29.862C18.6796 29.737 18.51 29.6667 18.3332 29.6667H12.9998C12.823 29.6667 12.6535 29.737 12.5284 29.862C12.4034 29.987 12.3332 30.1566 12.3332 30.3334V35.6667C12.3332 35.8436 12.4034 36.0131 12.5284 36.1382C12.6535 36.2632 12.823 36.3334 12.9998 36.3334H18.3332C18.51 36.3334 18.6796 36.2632 18.8046 36.1382C18.9296 36.0131 18.9998 35.8436 18.9998 35.6667V30.3334ZM17.6665 35.0001H13.6665V31.0001H17.6665V35.0001ZM9.6665 38.3334H4.33317C4.15636 38.3334 3.98679 38.4037 3.86177 38.5287C3.73674 38.6537 3.6665 38.8233 3.6665 39.0001V44.3334C3.6665 44.5102 3.73674 44.6798 3.86177 44.8048C3.98679 44.9298 4.15636 45.0001 4.33317 45.0001H9.6665C9.84332 45.0001 10.0129 44.9298 10.1379 44.8048C10.2629 44.6798 10.3332 44.5102 10.3332 44.3334V39.0001C10.3332 38.8233 10.2629 38.6537 10.1379 38.5287C10.0129 38.4037 9.84332 38.3334 9.6665 38.3334ZM8.99984 43.6667H4.99984V39.6667H8.99984V43.6667ZM18.3332 38.3334H12.9998C12.823 38.3334 12.6535 38.4037 12.5284 38.5287C12.4034 38.6537 12.3332 38.8233 12.3332 39.0001V44.3334C12.3332 44.5102 12.4034 44.6798 12.5284 44.8048C12.6535 44.9298 12.823 45.0001 12.9998 45.0001H18.3332C18.51 45.0001 18.6796 44.9298 18.8046 44.8048C18.9296 44.6798 18.9998 44.5102 18.9998 44.3334V39.0001C18.9998 38.8233 18.9296 38.6537 18.8046 38.5287C18.6796 38.4037 18.51 38.3334 18.3332 38.3334ZM17.6665 43.6667H13.6665V39.6667H17.6665V43.6667ZM30.3332 3.66675H24.9998C24.823 3.66675 24.6535 3.73699 24.5284 3.86201C24.4034 3.98703 24.3332 4.1566 24.3332 4.33341V9.66675C24.3332 9.84356 24.4034 10.0131 24.5284 10.1382C24.6535 10.2632 24.823 10.3334 24.9998 10.3334H30.3332C30.51 10.3334 30.6796 10.2632 30.8046 10.1382C30.9296 10.0131 30.9998 9.84356 30.9998 9.66675V4.33341C30.9998 4.1566 30.9296 3.98703 30.8046 3.86201C30.6796 3.73699 30.51 3.66675 30.3332 3.66675ZM29.6665 9.00008H25.6665V5.00008H29.6665V9.00008ZM33.6665 10.3334H38.9998C39.1767 10.3334 39.3462 10.2632 39.4712 10.1382C39.5963 10.0131 39.6665 9.84356 39.6665 9.66675V4.33341C39.6665 4.1566 39.5963 3.98703 39.4712 3.86201C39.3462 3.73699 39.1767 3.66675 38.9998 3.66675H33.6665C33.4897 3.66675 33.3201 3.73699 33.1951 3.86201C33.0701 3.98703 32.9998 4.1566 32.9998 4.33341V9.66675C32.9998 9.84356 33.0701 10.0131 33.1951 10.1382C33.3201 10.2632 33.4897 10.3334 33.6665 10.3334ZM34.3332 5.00008H38.3332V9.00008H34.3332V5.00008ZM42.3332 10.3334H47.6665C47.8433 10.3334 48.0129 10.2632 48.1379 10.1382C48.2629 10.0131 48.3332 9.84356 48.3332 9.66675V4.33341C48.3332 4.1566 48.2629 3.98703 48.1379 3.86201C48.0129 3.73699 47.8433 3.66675 47.6665 3.66675H42.3332C42.1564 3.66675 41.9868 3.73699 41.8618 3.86201C41.7367 3.98703 41.6665 4.1566 41.6665 4.33341V9.66675C41.6665 9.84356 41.7367 10.0131 41.8618 10.1382C41.9868 10.2632 42.1564 10.3334 42.3332 10.3334ZM42.9998 5.00008H46.9998V9.00008H42.9998V5.00008ZM30.3332 12.3334H24.9998C24.823 12.3334 24.6535 12.4037 24.5284 12.5287C24.4034 12.6537 24.3332 12.8233 24.3332 13.0001V18.3334C24.3332 18.5102 24.4034 18.6798 24.5284 18.8048C24.6535 18.9298 24.823 19.0001 24.9998 19.0001H30.3332C30.51 19.0001 30.6796 18.9298 30.8046 18.8048C30.9296 18.6798 30.9998 18.5102 30.9998 18.3334V13.0001C30.9998 12.8233 30.9296 12.6537 30.8046 12.5287C30.6796 12.4037 30.51 12.3334 30.3332 12.3334ZM29.6665 17.6667H25.6665V13.6667H29.6665V17.6667ZM33.6665 19.0001H38.9998C39.1767 19.0001 39.3462 18.9298 39.4712 18.8048C39.5963 18.6798 39.6665 18.5102 39.6665 18.3334V13.0001C39.6665 12.8233 39.5963 12.6537 39.4712 12.5287C39.3462 12.4037 39.1767 12.3334 38.9998 12.3334H33.6665C33.4897 12.3334 33.3201 12.4037 33.1951 12.5287C33.0701 12.6537 32.9998 12.8233 32.9998 13.0001V18.3334C32.9998 18.5102 33.0701 18.6798 33.1951 18.8048C33.3201 18.9298 33.4897 19.0001 33.6665 19.0001ZM34.3332 13.6667H38.3332V17.6667H34.3332V13.6667ZM42.3332 19.0001H47.6665C47.8433 19.0001 48.0129 18.9298 48.1379 18.8048C48.2629 18.6798 48.3332 18.5102 48.3332 18.3334V13.0001C48.3332 12.8233 48.2629 12.6537 48.1379 12.5287C48.0129 12.4037 47.8433 12.3334 47.6665 12.3334H42.3332C42.1564 12.3334 41.9868 12.4037 41.8618 12.5287C41.7367 12.6537 41.6665 12.8233 41.6665 13.0001V18.3334C41.6665 18.5102 41.7367 18.6798 41.8618 18.8048C41.9868 18.9298 42.1564 19.0001 42.3332 19.0001ZM42.9998 13.6667H46.9998V17.6667H42.9998V13.6667ZM30.3332 21.0001H24.9998C24.823 21.0001 24.6535 21.0703 24.5284 21.1953C24.4034 21.3204 24.3332 21.4899 24.3332 21.6667V27.0001C24.3332 27.1769 24.4034 27.3465 24.5284 27.4715C24.6535 27.5965 24.823 27.6667 24.9998 27.6667H30.3332C30.51 27.6667 30.6796 27.5965 30.8046 27.4715C30.9296 27.3465 30.9998 27.1769 30.9998 27.0001V21.6667C30.9998 21.4899 30.9296 21.3204 30.8046 21.1953C30.6796 21.0703 30.51 21.0001 30.3332 21.0001ZM29.6665 26.3334H25.6665V22.3334H29.6665V26.3334ZM33.6665 27.6667H38.9998C39.1767 27.6667 39.3462 27.5965 39.4712 27.4715C39.5963 27.3465 39.6665 27.1769 39.6665 27.0001V21.6667C39.6665 21.4899 39.5963 21.3204 39.4712 21.1953C39.3462 21.0703 39.1767 21.0001 38.9998 21.0001H33.6665C33.4897 21.0001 33.3201 21.0703 33.1951 21.1953C33.0701 21.3204 32.9998 21.4899 32.9998 21.6667V27.0001C32.9998 27.1769 33.0701 27.3465 33.1951 27.4715C33.3201 27.5965 33.4897 27.6667 33.6665 27.6667ZM34.3332 22.3334H38.3332V26.3334H34.3332V22.3334ZM42.3332 27.6667H47.6665C47.8433 27.6667 48.0129 27.5965 48.1379 27.4715C48.2629 27.3465 48.3332 27.1769 48.3332 27.0001V21.6667C48.3332 21.4899 48.2629 21.3204 48.1379 21.1953C48.0129 21.0703 47.8433 21.0001 47.6665 21.0001H42.3332C42.1564 21.0001 41.9868 21.0703 41.8618 21.1953C41.7367 21.3204 41.6665 21.4899 41.6665 21.6667V27.0001C41.6665 27.1769 41.7367 27.3465 41.8618 27.4715C41.9868 27.5965 42.1564 27.6667 42.3332 27.6667ZM42.9998 22.3334H46.9998V26.3334H42.9998V22.3334ZM30.3332 29.6667H24.9998C24.823 29.6667 24.6535 29.737 24.5284 29.862C24.4034 29.987 24.3332 30.1566 24.3332 30.3334V35.6667C24.3332 35.8436 24.4034 36.0131 24.5284 36.1382C24.6535 36.2632 24.823 36.3334 24.9998 36.3334H30.3332C30.51 36.3334 30.6796 36.2632 30.8046 36.1382C30.9296 36.0131 30.9998 35.8436 30.9998 35.6667V30.3334C30.9998 30.1566 30.9296 29.987 30.8046 29.862C30.6796 29.737 30.51 29.6667 30.3332 29.6667ZM29.6665 35.0001H25.6665V31.0001H29.6665V35.0001ZM39.6665 35.6667V30.3334C39.6665 30.1566 39.5963 29.987 39.4712 29.862C39.3462 29.737 39.1767 29.6667 38.9998 29.6667H33.6665C33.4897 29.6667 33.3201 29.737 33.1951 29.862C33.0701 29.987 32.9998 30.1566 32.9998 30.3334V35.6667C32.9998 35.8436 33.0701 36.0131 33.1951 36.1382C33.3201 36.2632 33.4897 36.3334 33.6665 36.3334H38.9998C39.1767 36.3334 39.3462 36.2632 39.4712 36.1382C39.5963 36.0131 39.6665 35.8436 39.6665 35.6667ZM38.3332 35.0001H34.3332V31.0001H38.3332V35.0001ZM42.3332 36.3334H47.6665C47.8433 36.3334 48.0129 36.2632 48.1379 36.1382C48.2629 36.0131 48.3332 35.8436 48.3332 35.6667V30.3334C48.3332 30.1566 48.2629 29.987 48.1379 29.862C48.0129 29.737 47.8433 29.6667 47.6665 29.6667H42.3332C42.1564 29.6667 41.9868 29.737 41.8618 29.862C41.7367 29.987 41.6665 30.1566 41.6665 30.3334V35.6667C41.6665 35.8436 41.7367 36.0131 41.8618 36.1382C41.9868 36.2632 42.1564 36.3334 42.3332 36.3334ZM42.9998 31.0001H46.9998V35.0001H42.9998V31.0001Z" fill="black"/>
<path d="M59.6666 44.3334H54.3332V43C54.3332 42.414 54.1792 41.8374 53.8872 41.3334C53.8434 41.2576 53.7851 41.1912 53.7156 41.138C53.6462 41.0847 53.5669 41.0457 53.4823 41.0231C53.3977 41.0005 53.3096 40.9948 53.2228 41.0063C53.136 41.0178 53.0524 41.0462 52.9766 41.09C52.9008 41.1339 52.8344 41.1922 52.7812 41.2616C52.7279 41.3311 52.6889 41.4104 52.6663 41.495C52.6437 41.5795 52.638 41.6677 52.6495 41.7545C52.661 41.8413 52.6894 41.9249 52.7332 42.0007C52.9072 42.3027 52.9999 42.6487 52.9999 43V44.3334H44.9999V43C44.9999 41.8974 45.8972 41 46.9999 41H50.9999C51.1767 41 51.3463 40.9298 51.4713 40.8048C51.5963 40.6798 51.6666 40.5102 51.6666 40.3334V1.00004C51.6666 0.82323 51.5963 0.65366 51.4713 0.528636C51.3463 0.403612 51.1767 0.333374 50.9999 0.333374H21.6666C21.4898 0.333374 21.3202 0.403612 21.1952 0.528636C21.0702 0.65366 20.9999 0.82323 20.9999 1.00004V17.6667H13.6666C13.4898 17.6667 13.3202 17.7369 13.1952 17.862C13.0702 17.987 12.9999 18.1566 12.9999 18.3334C12.9999 18.5102 13.0702 18.6798 13.1952 18.8048C13.3202 18.9298 13.4898 19 13.6666 19H20.9999V60.3334H1.66659V19H10.9999C11.1767 19 11.3463 18.9298 11.4713 18.8048C11.5963 18.6798 11.6666 18.5102 11.6666 18.3334V12.3334C11.6666 12.2967 11.6513 12.2647 11.6459 12.23C13.8779 9.61337 13.7633 5.66871 11.2899 3.19537C11.2281 3.13341 11.1546 3.08425 11.0737 3.05071C10.9928 3.01717 10.9061 2.99991 10.8186 2.99991C10.731 2.99991 10.6443 3.01717 10.5635 3.05071C10.4826 3.08425 10.4091 3.13341 10.3473 3.19537L1.86192 11.6807C1.79995 11.7426 1.7508 11.816 1.71726 11.8969C1.68372 11.9778 1.66645 12.0645 1.66645 12.152C1.66645 12.2396 1.68372 12.3263 1.71726 12.4072C1.7508 12.488 1.79995 12.5615 1.86192 12.6234C2.48047 13.2429 3.21537 13.734 4.02436 14.0685C4.83335 14.4031 5.70049 14.5744 6.57592 14.5727C7.91674 14.5728 9.22635 14.1681 10.3333 13.4114V17.6667H0.999919C0.823108 17.6667 0.653538 17.7369 0.528514 17.862C0.40349 17.987 0.333252 18.1566 0.333252 18.3334V61C0.333252 61.1768 0.40349 61.3464 0.528514 61.4714C0.653538 61.5965 0.823108 61.6667 0.999919 61.6667H25.6666C25.8434 61.6667 26.013 61.5965 26.138 61.4714C26.263 61.3464 26.3333 61.1768 26.3333 61V47H32.9999V60.3334H28.3333C28.1564 60.3334 27.9869 60.4036 27.8618 60.5286C27.7368 60.6537 27.6666 60.8232 27.6666 61C27.6666 61.1768 27.7368 61.3464 27.8618 61.4714C27.9869 61.5965 28.1564 61.6667 28.3333 61.6667H59.6666C60.7692 61.6667 61.6666 60.7694 61.6666 59.6667V46.3334C61.6666 45.2307 60.7692 44.3334 59.6666 44.3334ZM3.30525 12.1227L10.7893 4.63871C12.4146 6.72937 12.2673 9.76071 10.3473 11.6807C8.42792 13.6007 5.39525 13.7474 3.30525 12.1227ZM36.4559 60.3334H34.3332V46.3334C34.3332 46.1566 34.263 45.987 34.138 45.862C34.013 45.7369 33.8434 45.6667 33.6666 45.6667H25.6666C25.4898 45.6667 25.3202 45.7369 25.1952 45.862C25.0702 45.987 24.9999 46.1566 24.9999 46.3334V60.3334H22.3333V1.66671H50.3332V39.6667H46.9999C45.1619 39.6667 43.6666 41.162 43.6666 43V44.3334H38.3332C37.2306 44.3334 36.3332 45.2307 36.3332 46.3334V59.6667C36.3332 59.9014 36.3812 60.124 36.4559 60.3334ZM38.3332 60.3334C37.9659 60.3334 37.6666 60.034 37.6666 59.6667V57.734C38.3064 57.866 38.8935 58.1826 39.3555 58.6445C39.8174 59.1064 40.1339 59.6936 40.2659 60.3334H38.3332ZM60.3332 59.6667C60.3332 60.034 60.0339 60.3334 59.6666 60.3334H57.7339C57.8659 59.6936 58.1824 59.1064 58.6444 58.6445C59.1063 58.1826 59.6934 57.866 60.3332 57.734V59.6667ZM60.3332 56.3867C59.3381 56.5318 58.4164 56.9943 57.7053 57.7055C56.9942 58.4166 56.5317 59.3382 56.3866 60.3334H41.6132C41.4681 59.3382 41.0056 58.4166 40.2945 57.7055C39.5834 56.9943 38.6617 56.5318 37.6666 56.3867V53H40.9999V53.6667C40.9999 53.8435 41.0702 54.0131 41.1952 54.1381C41.3202 54.2631 41.4898 54.3334 41.6666 54.3334H42.3332V55.6667C42.3332 55.8435 42.4035 56.0131 42.5285 56.1381C42.6535 56.2631 42.8231 56.3334 42.9999 56.3334C43.1767 56.3334 43.3463 56.2631 43.4713 56.1381C43.5963 56.0131 43.6666 55.8435 43.6666 55.6667V54.3334H44.3332C44.5101 54.3334 44.6796 54.2631 44.8047 54.1381C44.9297 54.0131 44.9999 53.8435 44.9999 53.6667V53H52.9999V53.6667C52.9999 53.8435 53.0702 54.0131 53.1952 54.1381C53.3202 54.2631 53.4898 54.3334 53.6666 54.3334H54.3332V55.6667C54.3332 55.8435 54.4035 56.0131 54.5285 56.1381C54.6535 56.2631 54.8231 56.3334 54.9999 56.3334C55.1767 56.3334 55.3463 56.2631 55.4713 56.1381C55.5963 56.0131 55.6666 55.8435 55.6666 55.6667V54.3334H56.3332C56.5101 54.3334 56.6796 54.2631 56.8047 54.1381C56.9297 54.0131 56.9999 53.8435 56.9999 53.6667V53H60.3332V56.3867ZM42.3332 53V51H43.6666V53H42.3332ZM54.3332 53V51H55.6666V53H54.3332ZM60.3332 51.6667H56.9999V50.3334C56.9999 50.1566 56.9297 49.987 56.8047 49.862C56.6796 49.7369 56.5101 49.6667 56.3332 49.6667H53.6666C53.4898 49.6667 53.3202 49.7369 53.1952 49.862C53.0702 49.987 52.9999 50.1566 52.9999 50.3334V51.6667H44.9999V50.3334C44.9999 50.1566 44.9297 49.987 44.8047 49.862C44.6796 49.7369 44.5101 49.6667 44.3332 49.6667H41.6666C41.4898 49.6667 41.3202 49.7369 41.1952 49.862C41.0702 49.987 40.9999 50.1566 40.9999 50.3334V51.6667H37.6666V46.3334C37.6666 45.966 37.9659 45.6667 38.3332 45.6667H59.6666C60.0339 45.6667 60.3332 45.966 60.3332 46.3334V51.6667Z" fill="black"/>
<path d="M26.9999 44.3333C27.3681 44.3333 27.6666 44.0349 27.6666 43.6667C27.6666 43.2985 27.3681 43 26.9999 43C26.6317 43 26.3333 43.2985 26.3333 43.6667C26.3333 44.0349 26.6317 44.3333 26.9999 44.3333Z" fill="black"/>
<path d="M29.6667 44.3333C30.0349 44.3333 30.3333 44.0349 30.3333 43.6667C30.3333 43.2985 30.0349 43 29.6667 43C29.2985 43 29 43.2985 29 43.6667C29 44.0349 29.2985 44.3333 29.6667 44.3333Z" fill="black"/>
<path d="M32.3332 44.3333C32.7014 44.3333 32.9998 44.0349 32.9998 43.6667C32.9998 43.2985 32.7014 43 32.3332 43C31.965 43 31.6665 43.2985 31.6665 43.6667C31.6665 44.0349 31.965 44.3333 32.3332 44.3333Z" fill="black"/>
</svg>
