<svg width="24" height="25" viewBox="0 0 24 25" fill="none" xmlns="http://www.w3.org/2000/svg">
<path d="M2 12.6211C2 8.85009 2 6.96409 3.172 5.79309C4.343 4.62109 6.229 4.62109 10 4.62109H14C17.771 4.62109 19.657 4.62109 20.828 5.79309C22 6.96409 22 8.85009 22 12.6211V14.6211C22 18.3921 22 20.2781 20.828 21.4491C19.657 22.6211 17.771 22.6211 14 22.6211H10C6.229 22.6211 4.343 22.6211 3.172 21.4491C2 20.2781 2 18.3921 2 14.6211V12.6211Z" stroke="#344054" stroke-width="1.65"/>
<path d="M7 4.62109V3.12109M17 4.62109V3.12109" stroke="#344054" stroke-width="1.65" stroke-linecap="round"/>
<path d="M16.5 18.6211C17.3284 18.6211 18 17.9495 18 17.1211C18 16.2927 17.3284 15.6211 16.5 15.6211C15.6716 15.6211 15 16.2927 15 17.1211C15 17.9495 15.6716 18.6211 16.5 18.6211Z" stroke="#344054" stroke-width="1.65"/>
<path d="M2.5 9.62109H21.5" stroke="#344054" stroke-width="1.65" stroke-linecap="round"/>
</svg>
