<svg width="24" height="25" viewBox="0 0 24 25" fill="none" xmlns="http://www.w3.org/2000/svg">
<path d="M3.092 7.32226L9.782 4.18526C10.4749 3.85624 11.2324 3.68555 11.9995 3.68555C12.7666 3.68555 13.5241 3.85624 14.217 4.18526L20.909 7.32226C22.364 8.00426 22.364 10.3663 20.909 11.0483L14.218 14.1853C13.5251 14.5143 12.7676 14.685 12.0005 14.685C11.2334 14.685 10.4759 14.5143 9.783 14.1853L5 11.9433" stroke="#303DBF" stroke-width="1.5" stroke-linecap="round"/>
<path d="M2.5 15.6855V12.8235C2.5 11.5435 2.5 10.9035 2.83 10.4035C3.16 9.90255 3.749 9.65055 4.924 9.14655L6 8.68555" stroke="#303DBF" stroke-width="1.5" stroke-linecap="round" stroke-linejoin="round"/>
<path d="M19 12.1855V17.3105C19 18.3185 18.497 19.2625 17.615 19.7505C16.146 20.5655 13.796 21.6855 12 21.6855C10.204 21.6855 7.854 20.5645 6.385 19.7515C5.504 19.2625 5 18.3185 5 17.3115V12.1855" stroke="#303DBF" stroke-width="1.5" stroke-linecap="round"/>
</svg>
