<svg width="24" height="25" viewBox="0 0 24 25" fill="none" xmlns="http://www.w3.org/2000/svg">
<path d="M4 10.8285C4 6.33155 7.582 2.68555 12 2.68555C16.418 2.68555 20 6.33155 20 10.8285C20 15.2905 17.447 20.4985 13.463 22.3595C13.0051 22.574 12.5056 22.6851 12 22.6851C11.4944 22.6851 10.9949 22.574 10.537 22.3595C6.553 20.4975 4 15.2915 4 10.8295V10.8285Z" stroke="#303DBF" stroke-width="1.5"/>
<path d="M12 13.6855C13.6569 13.6855 15 12.3424 15 10.6855C15 9.02869 13.6569 7.68555 12 7.68555C10.3431 7.68555 9 9.02869 9 10.6855C9 12.3424 10.3431 13.6855 12 13.6855Z" stroke="#303DBF" stroke-width="1.5"/>
</svg>
