<svg width="24" height="25" viewBox="0 0 24 25" fill="none" xmlns="http://www.w3.org/2000/svg">
<path fill-rule="evenodd" clip-rule="evenodd" d="M11.938 2.06055H12.062C14.076 2.06055 15.665 2.06055 16.822 2.21355C17.961 2.36355 18.983 2.69355 19.468 3.63655C19.538 3.77255 19.598 3.91355 19.645 4.05855C19.976 5.06855 19.486 6.02455 18.788 6.92855C18.078 7.84755 16.954 8.96055 15.53 10.3705L13.066 12.8105L15.53 15.2505C16.954 16.6605 18.078 17.7735 18.788 18.6925C19.486 19.5965 19.976 20.5525 19.645 21.5625C19.5973 21.7077 19.5381 21.8488 19.468 21.9845C18.983 22.9275 17.961 23.2575 16.823 23.4075C15.665 23.5605 14.076 23.5605 12.063 23.5605H11.938C9.92398 23.5605 8.33498 23.5605 7.17699 23.4075C6.03899 23.2575 5.01699 22.9275 4.53099 21.9845C4.46122 21.8488 4.40237 21.7077 4.35498 21.5625C4.02398 20.5525 4.51398 19.5965 5.21198 18.6925C5.92198 17.7735 7.04598 16.6605 8.46999 15.2505L10.934 12.8105L8.46999 10.3705C7.04598 8.96055 5.92198 7.84755 5.21198 6.92855C4.51398 6.02455 4.02398 5.06855 4.35498 4.05855C4.40198 3.91355 4.46199 3.77255 4.53099 3.63655C5.01699 2.69355 6.03899 2.36355 7.17699 2.21355C8.33498 2.06055 9.92498 2.06055 11.938 2.06055ZM12 11.7545L14.43 9.34855C15.908 7.88555 16.96 6.84155 17.6 6.01155C18.262 5.15555 18.297 4.76355 18.22 4.52555C18.197 4.45609 18.1686 4.38854 18.135 4.32355C18.018 4.09655 17.706 3.84255 16.627 3.70055C15.579 3.56255 14.09 3.56055 12 3.56055C9.90998 3.56055 8.41999 3.56255 7.37299 3.70055C6.29298 3.84255 5.98198 4.09655 5.86498 4.32355C5.83135 4.38852 5.80292 4.45607 5.77999 4.52555C5.70299 4.76355 5.73799 5.15555 6.39999 6.01155C7.03999 6.84155 8.09198 7.88555 9.56998 9.34855L12 11.7545ZM12 13.8655L9.56998 16.2725C8.09198 17.7355 7.03999 18.7795 6.39999 19.6095C5.73799 20.4655 5.70299 20.8575 5.77999 21.0955C5.80299 21.1655 5.83098 21.2325 5.86498 21.2975C5.98198 21.5245 6.29399 21.7785 7.37299 21.9205C8.42099 22.0585 9.90998 22.0605 12 22.0605C14.09 22.0605 15.58 22.0585 16.627 21.9205C17.707 21.7785 18.018 21.5245 18.135 21.2975C18.169 21.2325 18.197 21.1655 18.22 21.0955C18.297 20.8575 18.262 20.4655 17.6 19.6095C16.96 18.7795 15.908 17.7355 14.43 16.2725L12 13.8655ZM9.24998 6.31055C9.24998 6.11163 9.329 5.92087 9.46966 5.78022C9.61031 5.63956 9.80107 5.56055 9.99998 5.56055H14C14.1989 5.56055 14.3897 5.63956 14.5303 5.78022C14.671 5.92087 14.75 6.11163 14.75 6.31055C14.75 6.50946 14.671 6.70022 14.5303 6.84088C14.3897 6.98153 14.1989 7.06055 14 7.06055H9.99998C9.80107 7.06055 9.61031 6.98153 9.46966 6.84088C9.329 6.70022 9.24998 6.50946 9.24998 6.31055ZM9.24998 19.3105C9.24998 19.1116 9.329 18.9209 9.46966 18.7802C9.61031 18.6396 9.80107 18.5605 9.99998 18.5605H14C14.1989 18.5605 14.3897 18.6396 14.5303 18.7802C14.671 18.9209 14.75 19.1116 14.75 19.3105C14.75 19.5095 14.671 19.7002 14.5303 19.8409C14.3897 19.9815 14.1989 20.0605 14 20.0605H9.99998C9.80107 20.0605 9.61031 19.9815 9.46966 19.8409C9.329 19.7002 9.24998 19.5095 9.24998 19.3105Z" fill="#344054"/>
</svg>
